<?xml version="1.0" encoding="UTF-8" standalone="no"?>
<!-- Created with Inkscape (http://www.inkscape.org/) -->

<svg
   xmlns:dc="http://purl.org/dc/elements/1.1/"
   xmlns:cc="http://creativecommons.org/ns#"
   xmlns:rdf="http://www.w3.org/1999/02/22-rdf-syntax-ns#"
   xmlns:svg="http://www.w3.org/2000/svg"
   xmlns="http://www.w3.org/2000/svg"
   xmlns:sodipodi="http://sodipodi.sourceforge.net/DTD/sodipodi-0.dtd"
   xmlns:inkscape="http://www.inkscape.org/namespaces/inkscape"
   version="1.1"
   width="148.93198"
   height="192.23378"
   id="svg3058"
   inkscape:version="0.48.3.1 r9886"
   sodipodi:docname="ninja_panda.svg">
  <sodipodi:namedview
     pagecolor="#ffffff"
     bordercolor="#666666"
     borderopacity="1"
     objecttolerance="10"
     gridtolerance="10"
     guidetolerance="10"
     inkscape:pageopacity="0"
     inkscape:pageshadow="2"
     inkscape:window-width="640"
     inkscape:window-height="480"
     id="namedview6"
     showgrid="false"
     fit-margin-top="15"
     fit-margin-left="15"
     fit-margin-right="15"
     fit-margin-bottom="15"
     inkscape:zoom="1.18"
     inkscape:cx="106.04688"
     inkscape:cy="94.622803"
     inkscape:window-x="0"
     inkscape:window-y="25"
     inkscape:window-maximized="0"
     inkscape:current-layer="svg3058" />
  <metadata
     id="metadata3064">
    <rdf:RDF>
      <cc:Work
         rdf:about="">
        <dc:format>image/svg+xml</dc:format>
        <dc:type
           rdf:resource="http://purl.org/dc/dcmitype/StillImage" />
        <dc:title />
      </cc:Work>
    </rdf:RDF>
  </metadata>
  <defs
     id="defs3062" />
  <path
     style="fill:#000000"
     d="m 57.732258,177.00089 c -7.988557,-0.39665 -11.216984,-8.68129 -11.188349,-15.60854 -0.974254,-5.09822 1.982613,-12.37666 0.350789,-16.02547 -5.424476,-2.23314 -11.02811,7.73122 -15.662626,2.94847 -4.191907,-7.46474 11.353984,-5.71911 5.277611,-12.75127 -2.089245,-8.65039 2.827558,-17.39709 8.988335,-23.16894 C 31.777982,106.89855 20.742857,93.547118 20.968299,78.340522 18.68233,71.80219 27.709954,63.160571 20.508218,59.483904 11.833977,49.46488 14.235074,33.462841 21.952045,23.593013 c 5.89669,-8.254154 19.387498,-12.162863 27.11885,-4.223049 4.275919,2.492205 3.095739,11.064194 5.088174,12.721314 13.009873,-5.858222 28.461113,-5.668608 41.396509,0.30358 -0.76844,-8.519889 5.487032,-17.75562 14.699722,-17.384001 14.05428,-0.01593 23.2164,14.444593 23.62988,27.289623 0.42299,7.414618 -1.97872,16.046607 -8.9373,19.799398 5.82466,13.790367 3.39433,31.11121 -7.90412,41.431352 -3.3106,4.03712 -10.04689,6.5969 -13.28652,9.14721 7.17985,6.66612 12.53726,18.24091 6.7463,27.39468 -2.1958,5.97771 -12.553535,3.04966 -8.5722,10.70938 0.6245,7.8484 1.82218,17.36237 -4.11297,23.55347 -5.563895,3.94126 -13.467702,3.58957 -19.37196,0.58417 -5.114236,-3.6919 4.767097,-16.39009 -3.961134,-15.18588 -7.833906,-1.59755 -0.845719,9.03233 -2.696719,13.26656 -2.094361,4.55739 -9.814191,4.13693 -14.056299,4.00007 z m 7.33911,-4.10873 c 7.479671,0.14562 1.696122,-8.74541 2.905314,-13.01694 0.403545,-5.45024 15.186245,-5.05096 12.946959,1.80272 0.426928,4.24698 -3.878781,12.01915 3.587171,11.33262 6.117384,1.28016 14.999337,-0.45226 14.670731,-8.30734 1.865627,-12.95641 -1.573323,-26.01037 -6.466895,-37.93769 -5.657737,0.69734 2.832055,5.32861 0.780326,9.60939 0.21584,3.23737 1.975693,14.03284 -1.798274,5.7391 -2.362165,-3.07023 -8.781618,-10.44487 -8.315161,-2.08389 -1.84338,2.67079 -6.152912,16.21413 -6.472917,6.38762 -1.395163,-4.85065 -1.362164,-12.69094 1.988852,-14.73809 -5.422583,4.497 -13.903064,1.8603 -18.735819,7.59932 -2.561944,1.91022 -8.555331,0.30582 -9.246486,4.03508 -1.762612,8.58852 -2.651287,17.82443 0.113079,26.2926 2.973483,4.29403 9.466388,3.99646 14.04312,3.2855 z m -29.91396,-25.36225 c 5.803121,-2.33378 -2.235252,-7.11898 -3.07384,-1.57293 0.202298,2.27877 0.845508,3.31273 3.07384,1.57293 z m 4.85303,-1.6732 c 5.263311,-3.10311 -5.813579,-7.2237 -2.299828,-0.64663 0.117211,1.27611 1.621535,2.06583 2.299828,0.64663 z m 40.00959,-2.79177 c 4.337868,-4.67834 2.515235,-16.72004 -2.366145,-6.46288 0.346182,1.83976 0.04314,13.84647 2.366145,6.46288 z m -32.27302,-1.65576 c 2.893353,-5.73054 5.3352,-15.43675 9.458581,-18.50766 -0.385637,3.51535 -6.2395,14.97301 0.114698,8.10382 5.728608,0.1094 11.77908,-2.78347 16.15488,-6.10561 7.267428,1.07383 11.000474,-6.15872 18.184957,-5.10229 4.275129,-3.96643 11.046266,-3.66284 9.546836,3.69016 -1.964008,2.88375 -10.074831,0.71582 -4.958389,6.17765 2.468539,4.61147 3.986359,16.91588 10.834839,9.18518 5.9191,-6.90723 0.95874,-16.46769 -3.91893,-22.39864 -2.04757,-5.83432 -7.570611,-0.53539 -11.802546,-0.81838 -9.986732,1.37184 -20.165127,0.78104 -30.211155,0.51239 -4.425119,0.56884 -10.223575,-3.69056 -13.680777,-1.85032 -5.072629,6.25488 -11.291934,14.99759 -6.662628,23.16816 1.450905,2.20999 4.10998,4.47959 6.939634,3.94554 z m 8.77717,-2.80306 c 1.197765,-8.06625 -7.009468,-0.29738 -4.104624,1.44242 1.373301,-0.46205 2.801607,-0.79599 4.104624,-1.44242 z m 35.66616,-1.54534 c 1.666233,-5.24479 -5.596231,-10.19816 -7.95144,-6.11063 0.08145,3.80002 7.528177,8.0893 8.126339,8.18824 l -0.07218,-0.94335 -0.102717,-1.13426 z m -32.78843,0.92262 c 2.178815,-3.63157 14.508903,-4.36639 9.614329,-8.17766 -4.055355,3.39132 -14.918405,0.0941 -11.522379,7.96718 0.33814,0.81004 1.384683,0.85583 1.90805,0.21048 z m 14.26832,-5.20156 c 3.116035,-3.71782 12.75813,-1.86031 8.88224,-8.36649 -3.706034,3.39821 -16.178606,0.81058 -10.10051,8.80082 l 1.21827,-0.43433 z m 14.18895,-5.53559 c 3.519671,-3.38305 16.723332,-2.74687 9.89341,-8.79827 -4.069448,3.38662 -9.356344,3.77533 -13.799135,4.73097 -1.539411,2.84329 0.829345,7.44164 3.905725,4.0673 z m 1.47531,-15.26854 C 104.42028,110.25784 120.016,101.01669 123.8733,85.494827 128.28481,66.993028 116.31534,48.436287 100.83453,39.088478 89.010667,31.730414 74.006291,27.929658 60.606005,33.221577 41.985003,39.373582 25.373535,55.758099 24.200271,76.105149 c -1.326857,15.851899 11.308547,29.548761 25.904654,33.753001 12.138961,3.91584 25.070977,2.26709 37.594419,2.29949 l 0.876856,-0.0806 0.758358,-0.0994 -7e-5,3e-5 z M 54.278068,97.247946 C 47.495667,96.79923 36.662459,97.702409 35.613037,88.531431 34.069388,81.083833 33.721356,69.609539 42.729118,66.906059 c 9.996874,-2.255775 20.410255,-0.982298 30.588588,-1.355285 10.481261,0.25822 21.077579,-0.626287 31.471604,0.939552 9.38265,1.50928 10.32357,12.623098 8.9283,20.143699 0.0945,7.736823 -7.47611,10.884555 -14.153884,10.346359 -15.088301,0.401621 -30.191504,-0.06306 -45.285658,0.267562 z m 39.03249,-2.774563 C 84.28761,91.043099 77.695165,79.19086 82.703854,70.209356 c 4.697455,-3.493131 0.918885,-2.795019 -2.484012,-2.791337 -5.565728,0 -11.131456,0 -16.697184,0 7.899351,5.85316 4.274878,18.053271 -2.207842,23.557657 -2.076596,2.594283 -10.908564,4.692682 -3.503864,4.07898 12.322545,-0.0021 24.645091,-0.0043 36.967636,-0.0064 -0.489311,-0.191654 -0.979071,-0.383003 -1.46803,-0.574897 z m -19.94803,-3.386309 c -9.924207,-4.841908 10.780354,-6.187006 3.02243,-0.51671 -0.818406,0.62479 -2.059874,1.302913 -3.02243,0.51671 z m -28.92898,2.720911 c -6.677423,-4.912017 -2.652032,-14.462739 1.409561,-19.750854 1.219964,-2.785777 9.634314,-7.579391 2.410756,-5.949892 -10.073121,-0.816611 -13.211091,9.94522 -11.272117,18.019649 -1.347255,4.440794 6.746222,10.617501 7.4518,7.681097 z m 62.618322,0.124438 c 6.92592,-3.028181 5.33976,-12.943047 4.48433,-19.091524 -0.3701,-6.209974 -13.0092,-8.02701 -13.432932,-6.058755 5.855292,5.134715 11.856182,13.355694 9.296882,21.516326 -0.68919,3.145781 -6.99354,5.260971 -0.34828,3.633953 z M 54.150668,92.586626 c 8.211454,-2.523009 14.911669,-12.939245 10.638287,-21.130812 -5.091144,-6.044703 -15.008491,-1.304223 -18.339658,4.482243 -3.505252,4.601157 -6.77084,13.751924 0.293696,16.663523 2.3447,0.866398 5.035453,0.552044 7.407675,-0.01495 z M 53.605308,84.4679 c -8.27129,-6.149485 7.199362,-13.807173 6.128095,-3.286411 -0.266406,2.828988 -3.599198,4.897537 -6.128095,3.286411 z m 2.8378,-1.611637 c 6.125116,-3.915573 -5.674081,-7.95363 -2.858914,-0.939471 0.642967,0.762383 1.833431,1.605883 2.858914,0.939471 z m 44.842112,10.032528 c 7.98397,-2.124897 5.08106,-12.150936 1.25851,-16.921448 C 99.204117,69.76594 87.639617,64.844224 83.528998,72.657137 80.025961,82.793098 90.693209,95.162766 101.28522,92.888791 z M 91.497098,84.53176 c -8.600623,-6.078244 7.433139,-14.196819 5.920797,-3.026414 -0.424716,2.61763 -3.522126,4.466751 -5.920797,3.026414 z m 2.97569,-1.809132 c 5.498879,-4.891167 -6.393539,-7.12487 -3.030465,-0.641492 0.727799,0.80253 2.031365,1.480422 3.030465,0.641492 z M 26.795068,56.364352 c 3.151217,-3.803828 3.842966,-6.136283 0.30696,-9.678059 -2.930907,-7.0672 3.872694,-17.344244 11.876765,-14.239721 3.828054,1.80081 3.215669,8.311509 7.570146,3.65217 1.600413,-1.377412 5.080465,-1.748153 4.063443,-4.527387 C 50.98494,24.893814 45.708877,18.083871 38.655925,18.600055 26.547728,18.401312 18.528236,30.98119 18.000087,42.00567 c -1.379061,5.057178 3.663276,20.5743 8.794951,14.358682 l 3e-5,0 z m 98.422482,1.68005 c 8.27106,-7.23257 6.7846,-20.516914 1.69027,-29.159568 -4.21856,-7.948293 -14.97068,-13.43974 -23.28973,-8.412504 -4.153001,2.699943 -6.034765,8.919045 -5.000277,13.316703 2.413567,1.46567 4.827147,2.931339 7.240717,4.397008 0.71497,-7.630716 11.64275,-8.190728 14.68009,-1.74656 3.64348,4.596849 1.58666,11.507546 -1.53119,14.847985 2.18971,1.490515 3.05839,8.759766 6.21012,6.756936 z M 33.098528,47.366278 c 3.417803,-3.810199 13.754633,-10.154565 4.038823,-13.420958 -7.734727,-1.270022 -12.595472,11.085373 -5.882073,15.242003 0.718465,-0.494528 1.260628,-1.185146 1.84325,-1.821045 z m 85.625792,1.133417 c 6.25961,-5.642453 -1.88079,-18.72983 -9.43419,-13.404777 -5.45729,5.955106 6.06323,9.231664 8.40232,14.084408 l 1.03187,-0.679632 0,1e-6 z"
     id="path3068"
     inkscape:connector-curvature="0" />
</svg>
