<?xml version="1.0" encoding="UTF-8" standalone="no"?>
<!-- Created with Inkscape (http://www.inkscape.org/) -->

<svg
   xmlns:dc="http://purl.org/dc/elements/1.1/"
   xmlns:cc="http://creativecommons.org/ns#"
   xmlns:rdf="http://www.w3.org/1999/02/22-rdf-syntax-ns#"
   xmlns:svg="http://www.w3.org/2000/svg"
   xmlns="http://www.w3.org/2000/svg"
   version="1.1"
   width="200"
   height="200"
   id="svg3058">
  <metadata
     id="metadata3064">
    <rdf:RDF>
      <cc:Work
         rdf:about="">
        <dc:format>image/svg+xml</dc:format>
        <dc:type
           rdf:resource="http://purl.org/dc/dcmitype/StillImage" />
        <dc:title></dc:title>
      </cc:Work>
    </rdf:RDF>
  </metadata>
  <defs
     id="defs3062" />
  <path
     d="m 51.685379,179.38991 c -4.787,-0.7264 -7.98421,-2.9644 -9.41434,-6.5899 -0.67444,-1.70979 -1.37557,-4.84442 -1.6581,-7.413 -0.41926,-3.81191 0.0624,-11.70272 0.97554,-15.98187 0.13886,-0.65052 0.25243,-1.28703 0.25243,-1.41446 0,-0.14199 -0.38443,-0.23288 -0.99309,-0.23478 -0.54622,-0.002 -1.47219,-0.14017 -2.05778,-0.30771 -1.43801,-0.41144 -2.36922,-0.0429 -3.47135,1.374 -0.95383,1.22615 -1.50106,1.52337 -2.58103,1.4019 -0.67807,-0.0763 -1.05024,0.0339 -2.05969,0.60975 -2.79692,1.59551 -4.20823,1.90361 -4.8606,1.06112 -0.95706,-1.23606 -1.51191,-4.16497 -1.01148,-5.33917 0.35436,-0.83143 1.59555,-1.57588 3.70704,-2.22348 1.4109,-0.43273 1.64825,-0.57267 1.93223,-1.1393 0.36213,-0.72243 0.82865,-1.09182 1.37896,-1.09182 0.36813,0 0.36813,-5e-4 0.0333,-0.57626 -1.14064,-1.96189 -1.93375,-5.05175 -1.93375,-7.5337 0,-5.9458 3.24587,-12.97173 8.31928,-18.00779 l 1.20819,-1.19928 -1.95718,-0.91164 c -4.15169,-1.93382 -8.74778,-5.09288 -11.89068,-8.17289 -1.82578,-1.78925 -4.72598,-5.50443 -5.98666,-7.668874 -2.25711,-3.875246 -3.87436,-8.681275 -4.46869,-13.279962 -0.38681,-2.992885 -0.26687,-8.049405 0.26248,-11.067105 0.41836,-2.384588 1.56037,-6.621133 2.19341,-8.136873 0.23437,-0.56108 0.4014,-1.034349 0.37132,-1.051703 -2.14056,-1.232646 -3.9409,-2.806011 -4.9871,-4.358403 -2.72191,-4.038718 -3.9623005,-8.389994 -3.9623005,-13.899546 0,-15.59584 10.6239005,-28.812333 23.1637205,-28.816517 7.95978,-0.0025 13.51067,4.856614 14.90522,13.048063 0.15002,0.881089 0.27273,2.212444 0.27273,2.958575 l 0,1.356594 1.97948,-0.806856 c 6.43258,-2.622005 12.26215,-3.774603 19.09117,-3.774603 6.82898,0 12.65861,1.152598 19.09117,3.774603 l 1.97947,0.806856 0,-1.356594 c 0,-5.477817 2.74143,-11.146471 6.57151,-13.588407 6.566301,-4.186461 15.458281,-2.908597 22.124461,3.179502 10.45993,9.552863 12.93357,28.472662 4.96689,37.989676 -1.07402,1.283028 -2.41867,2.449729 -3.53366,3.066042 -0.37516,0.207373 -0.70676,0.394029 -0.7369,0.414801 -0.0301,0.0208 0.13694,0.496837 0.37129,1.057917 0.63305,1.51574 1.77506,5.752285 2.19338,8.136873 0.53235,3.03464 0.6494,8.071772 0.25809,11.107184 -0.83597,6.484752 -3.50457,12.694007 -7.63823,17.772517 -3.79721,4.66516 -8.9384,8.61909 -14.703371,11.30792 l -1.9572,0.91285 1.22843,1.21939 c 3.123781,3.10077 6.010341,7.72785 7.242171,11.60904 1.76612,5.56455 1.2938,10.43886 -1.4389,14.84955 -1.92373,3.10498 -5.393401,5.28429 -8.428151,5.29376 -0.60864,0.002 -0.99308,0.0928 -0.99308,0.23478 0,0.12743 0.11358,0.76394 0.2524,1.41446 0.91317,4.27915 1.39484,12.16996 0.97556,15.98187 -0.72641,6.60425 -2.39998,10.21259 -5.63207,12.14317 -4.16375,2.48709 -11.25982,2.7386 -16.57724,0.58755 -2.76331,-1.11783 -3.14762,-1.80752 -2.95315,-5.29969 0.11597,-2.08254 0.87022,-9.23894 1.0643,-10.09828 0.0959,-0.42457 0.0282,-0.44513 -1.81378,-0.55106 -1.05236,-0.0605 -2.7739,-0.0606 -3.82564,-7e-5 l -1.91223,0.10997 0.10681,0.51654 c 0.20383,0.9852 0.76982,6.23091 0.98032,9.08536 0.24971,3.38643 0.11573,4.27428 -0.76857,5.09261 -0.71946,0.66583 -3.23204,1.6801 -5.21596,2.10559 -1.90347,0.40825 -6.27519,0.57765 -8.03101,0.31121 z m 7.33911,-4.10873 c 0.94928,-0.17935 2.20648,-0.50616 2.79374,-0.72623 l 1.06776,-0.40013 -0.0875,-1.20127 c -0.048,-0.66071 -0.28308,-3.18151 -0.52199,-5.60179 -0.47873,-4.84897 -0.46616,-6.32408 0.0611,-7.18104 0.41114,-0.66807 0.79063,-0.77925 3.76566,-1.10314 2.19474,-0.23894 3.79044,-0.18183 6.56641,0.235 2.45798,0.36907 2.59902,0.9672 1.9228,8.15395 -0.25484,2.70841 -0.49844,5.32204 -0.54133,5.80807 l -0.078,0.8837 1.08543,0.40676 c 1.93169,0.7239 4.69288,1.14952 7.3692,1.13593 4.80673,-0.0244 8.6171,-1.55853 9.53299,-3.83812 0.4638,-1.15436 1.16541,-4.31371 1.46258,-6.58595 0.40542,-3.10007 0.24404,-9.47634 -0.34256,-13.53476 -0.90443,-6.25748 -2.12536,-11.2229 -3.83958,-15.61544 -0.53709,-1.37622 -1.3194,-3.48578 -1.73846,-4.68789 -0.41906,-1.20211 -0.7948,-2.22554 -0.83497,-2.27428 -0.10562,-0.12814 -2.86026,1.00997 -2.84818,1.17676 0.006,0.077 0.4136,0.37864 0.90673,0.67037 1.04517,0.61831 1.87987,1.95269 2.27353,3.63458 0.20831,0.88997 1.12736,11.55489 1.12736,13.08216 0,0.86893 -0.43355,0.43978 -1.38168,-1.36765 -1.34769,-2.56911 -3.19577,-4.77282 -4.97576,-5.93327 -0.78937,-0.51461 -1.88456,-1.27757 -2.43377,-1.69545 l -0.99856,-0.75978 -0.18383,1.44091 c -0.24784,1.94276 -0.89602,3.53887 -3.12001,7.68287 -1.03366,1.92601 -2.09227,3.97333 -2.35248,4.54959 -0.67821,1.50193 -0.88213,1.72373 -1.10993,1.20728 -0.35319,-0.80071 -1.75206,-11.33724 -1.74964,-13.17859 0.003,-2.03149 0.84348,-3.41494 3.27512,-5.38887 1.04344,-0.84704 -0.95281,-0.0155 -2.24048,0.93335 -0.42746,0.31496 -1.39674,0.87035 -2.15395,1.23421 -1.18951,0.57158 -1.51838,0.64536 -2.41795,0.54246 -0.57265,-0.0655 -1.2557,-0.12368 -1.51793,-0.12931 -0.64753,-0.0139 -4.22185,1.10135 -6.83206,2.13167 -1.93703,0.76459 -2.2349,0.9511 -3.15087,1.97277 -1.07896,1.20353 -1.19294,1.25964 -2.92538,1.44058 -0.6174,0.0645 -2.3661,0.48006 -3.88598,0.92351 l -2.76335,0.80626 -0.47222,2.18073 c -0.25971,1.1994 -0.68514,3.64232 -0.9453,5.42872 -0.42482,2.91666 -0.47358,3.75036 -0.47767,8.17238 -0.005,5.37359 0.12731,6.58703 1.13449,10.40183 0.4124,1.56209 0.62829,2.05302 1.14473,2.60318 2.31496,2.46609 7.78947,3.42936 13.43172,2.36338 z m -29.91396,-25.36225 c 1.06478,-0.54081 1.96414,-1.00718 1.99857,-1.03638 0.0343,-0.0292 -0.0627,-0.49934 -0.2159,-1.04475 -0.15314,-0.54541 -0.27964,-1.18703 -0.28111,-1.42581 -0.006,-1.01738 -0.19171,-1.0472 -2.09235,-0.33636 -2.494,0.93275 -2.63271,1.05956 -2.48305,2.27037 0.16406,1.3274 0.59216,2.55622 0.89048,2.55622 0.13604,0 1.11854,-0.44248 2.18336,-0.98329 z m 4.85303,-1.6732 c 0.29545,-0.4238 0.79881,-1.1043 1.11859,-1.51222 l 0.58145,-0.74168 -0.40104,-0.32132 c -0.22059,-0.17673 -0.79311,-0.69851 -1.27229,-1.15951 -0.7499,-0.72145 -0.97155,-0.82934 -1.59147,-0.77458 -0.54672,0.0483 -0.78927,0.19154 -1.00703,0.59472 -0.26647,0.49347 -0.26682,0.64015 -0.005,2.07018 0.34304,1.87068 0.77266,2.61496 1.50953,2.61496 0.39777,0 0.66358,-0.19196 1.0669,-0.77055 z m 40.00959,-2.79177 c 1.90346,-3.77449 2.44355,-5.23871 2.54084,-6.88838 0.0916,-1.55411 -0.23552,-4.42722 -0.50414,-4.42722 -0.20739,0 -1.4478,1.0127 -2.7821,2.27136 -1.41722,1.33689 -1.72636,2.02358 -1.643,3.64957 0.11678,2.27784 0.90254,8.38064 1.04106,8.0857 0.0726,-0.15467 0.67895,-1.36563 1.34734,-2.69103 z m -32.27302,-1.65576 c 0.25315,-0.11961 0.52103,-0.56165 0.73021,-1.2049 0.67903,-2.08826 2.68638,-7.23322 3.55838,-9.12022 1.03055,-2.23023 3.92217,-7.58735 4.47631,-8.29291 1.08119,-1.37675 0.91698,0.22456 -0.44506,4.33952 -0.63102,1.90638 -1.40823,4.1003 -1.72709,4.87537 -0.31892,0.77507 -0.57984,1.49567 -0.57984,1.60133 0,0.10565 0.43915,0.0273 0.97588,-0.17426 0.75586,-0.28374 1.08886,-0.55032 1.47673,-1.18223 0.60109,-0.97923 1.59984,-1.75629 2.25928,-1.75776 0.2643,-5.1e-4 0.75399,0.13755 1.0882,0.30699 0.57959,0.29382 0.75303,0.25965 3.7509,-0.73924 1.72876,-0.57602 3.60951,-1.22813 4.17945,-1.44913 0.56995,-0.22099 1.36659,-0.5049 1.77031,-0.63089 0.44259,-0.13813 0.734,-0.35068 0.734,-0.53533 0,-0.16843 0.30781,-0.67972 0.68407,-1.13619 0.96097,-1.16596 2.16951,-1.56976 4.13874,-1.38285 1.86185,0.17672 3.47829,-0.2004 6.0671,-1.41544 1.5537,-0.72922 1.93613,-0.99877 2.26885,-1.59914 0.78063,-1.4086 1.27414,-1.58715 4.19863,-1.51906 3.1075,0.0724 3.54675,-0.0614 7.90559,-2.40645 3.3613,-1.80841 3.53522,-1.8214 4.60692,-0.3442 1.18473,1.63301 1.86858,4.61082 1.34239,5.84541 -0.44951,1.05467 -0.87003,1.3646 -1.96791,1.45039 -0.55933,0.0437 -1.78471,0.27399 -2.72305,0.51173 -0.93834,0.23775 -1.77141,0.43226 -1.85127,0.43226 -0.28749,0 -0.12635,0.41296 1.07507,2.75508 1.29926,2.53286 3.10157,6.84104 4.36763,10.44028 0.90414,2.57035 1.08672,2.7246 2.77636,2.34555 2.43593,-0.54647 4.796991,-2.624 5.936261,-5.22341 1.50162,-3.42612 1.31491,-7.11113 -0.58647,-11.57478 -1.17283,-2.75334 -2.782581,-5.25151 -6.302361,-9.78058 l -1.16838,-1.50341 -0.83324,0.30427 c -2.55697,0.9337 -8.69521,2.16375 -12.924,2.58987 -2.69359,0.27142 -22.34734,0.27142 -25.04088,0 -4.22882,-0.42612 -10.36707,-1.65617 -12.92401,-2.58987 l -0.83324,-0.30427 -1.16124,1.50341 c -4.77948,6.18784 -6.42778,9.06327 -7.41053,12.92731 -1.03924,4.0862 -0.32755,8.01535 1.95298,10.78234 1.69696,2.05887 4.79952,3.49744 6.15833,2.85541 z m 8.77717,-2.80306 c -0.01,-0.0784 -0.17768,-0.58291 -0.37394,-1.12115 -0.26026,-0.71388 -0.33477,-1.25659 -0.27541,-2.00609 0.0556,-0.70161 0.0207,-0.99816 -0.11004,-0.93507 -0.10529,0.0508 -0.73546,0.35347 -1.4004,0.67257 -0.66489,0.31909 -1.30147,0.66655 -1.41454,0.77213 -0.23346,0.21793 -1.02939,2.65551 -1.19062,3.64609 l -0.10671,0.65584 2.44439,-0.77089 c 1.34442,-0.42399 2.43671,-0.83503 2.42727,-0.91343 z m 35.66616,-1.54534 c -0.32113,-3.31966 -0.6419,-4.89291 -1.17651,-5.77023 -0.48001,-0.78773 -2.71854,-2.15284 -3.26423,-1.99061 -0.21865,0.065 -0.85912,0.31982 -1.42328,0.56626 -0.69877,0.30524 -1.21345,0.40535 -1.61461,0.31404 l -0.58888,-0.13404 0.11607,0.90395 c 0.0638,0.49718 0.30766,1.39226 0.54182,1.98907 0.46758,1.19172 1.24796,1.93353 3.43497,3.26522 1.45181,0.88403 3.22361,2.46398 3.72915,3.32539 0.20193,0.34406 0.40293,0.58215 0.44667,0.52908 0.0438,-0.0531 -0.0468,-1.40223 -0.20117,-2.99813 z m -32.78843,0.92262 c 0.2955,-0.25932 0.81199,-0.7365 1.14772,-1.0604 1.13544,-1.09542 5.11183,-2.83748 8.72315,-3.82165 1.05999,-0.28888 1.24377,-0.40054 1.13742,-0.69112 -0.0698,-0.19061 -0.24315,-0.91989 -0.38535,-1.62061 l -0.2585,-1.27404 -2.00154,0.77425 c -1.10082,0.42583 -3.2807,1.17741 -4.84414,1.67017 -2.51314,0.79207 -2.90348,0.86576 -3.36783,0.63572 -1.12863,-0.55911 -1.26411,-0.52897 -2.0818,0.46318 -0.69195,0.83951 -0.77503,1.04292 -0.77503,1.89722 0,1.13282 0.21387,1.88787 0.79785,2.8168 0.51896,0.82555 1.13029,0.89299 1.90805,0.21048 z m 14.26832,-5.20156 c 0.59069,-0.23888 1.63219,-0.8036 2.31445,-1.25492 1.79594,-1.18806 4.13577,-2.15802 6.56939,-2.72331 l 1.07416,-0.2495 -0.46113,-0.95469 c -0.33781,-0.69938 -0.46341,-1.25276 -0.46967,-2.06928 -0.005,-0.61302 -0.0699,-1.11468 -0.14496,-1.11479 -0.075,-1.1e-4 -0.4345,0.1843 -0.79882,0.40981 -2.2463,1.39041 -4.13153,1.9368 -6.61673,1.9177 -2.29535,-0.0176 -2.62873,0.0895 -3.68441,1.18436 -0.64162,0.66543 -0.75651,0.90325 -0.7613,1.57621 -0.005,0.43589 0.11483,1.14311 0.26213,1.5716 0.26622,0.77438 1.22282,2.14114 1.49862,2.14114 0.0794,0 0.62757,-0.19545 1.21827,-0.43433 z m 14.18895,-5.53559 c 3.30093,-1.98951 8.2685,-3.78653 10.94224,-3.95835 0.9833,-0.0632 0.98592,-0.0651 1.04323,-0.77772 0.0761,-0.94611 -0.18834,-1.95887 -0.83394,-3.19392 -0.5266,-1.00741 -0.53316,-1.01194 -1.25812,-0.86828 -0.40082,0.0794 -1.66139,0.74058 -2.80128,1.46924 -3.75086,2.39769 -5.00779,2.77642 -7.9422,2.39309 -1.5561,-0.20327 -1.84995,-0.18961 -2.32438,0.10806 -1.18218,0.74172 -1.55829,2.6896 -0.85815,4.44438 0.38161,0.95644 1.06249,1.74336 1.50842,1.74336 0.14737,0 1.28326,-0.61194 2.52418,-1.35986 z m 1.47531,-15.26854 c 10.21568,-1.54212 17.301251,-4.46318 23.751391,-9.79164 6.20732,-5.127863 10.05433,-11.726064 11.41346,-19.5758 0.40555,-2.342267 0.40303,-7.314737 -0.005,-9.95354 -2.55279,-16.507751 -15.28668,-31.240386 -33.119491,-38.318029 -8.03563,-3.189254 -15.50811,-4.317981 -21.81189,-3.294727 -4.53653,0.736379 -7.75166,1.621541 -11.96746,3.294727 -17.82535,7.074685 -30.58824,21.841882 -33.11717,38.318029 -0.37066,2.414738 -0.41801,7.167953 -0.0939,9.429673 2.29179,15.994417 16.57482,27.839547 36.11126,29.947687 1.18739,0.12812 2.43091,0.26719 2.76335,0.30905 0.3325,0.0418 5.81171,0.0558 12.17609,0.031 9.62347,-0.0375 11.96348,-0.10422 13.89943,-0.39646 z M 48.231189,99.636967 c -3.14582,-0.08764 -8.21555,-0.496165 -10.15102,-0.817976 -3.1334,-0.520991 -5.03813,-1.317499 -6.14929,-2.571507 -3.28176,-3.703687 -4.24796,-15.087413 -1.79948,-21.201734 1.09592,-2.736882 3.37822,-4.740358 6.55084,-5.75067 3.90602,-1.243837 6.4984,-1.354484 31.75603,-1.355413 25.23801,-0.001 27.84636,0.11041 31.756021,1.355413 4.054,1.290978 6.44239,4.006745 7.36101,8.370024 1.30253,6.186732 0.23249,14.77327 -2.25778,18.117632 -2.32794,3.126358 -7.426871,3.90588 -24.683181,3.773538 -14.54311,-0.111536 -14.7033,-0.111405 -22.97047,0.01893 -4.0846,0.0644 -8.32029,0.09219 -9.41268,0.06175 z m 39.03249,-2.774563 c -4.8499,-1.898478 -8.75934,-5.802859 -10.86866,-10.854584 -2.6191,-6.272624 -1.78775,-12.280034 2.14449,-15.496338 l 0.86125,-0.704442 -10.96249,0 -10.96249,0 0.86125,0.704442 c 2.73524,2.237259 4.07815,6.079244 3.56005,10.18538 -0.91935,7.286465 -5.58753,13.450925 -12.21122,16.125235 l -1.54103,0.622204 20.29344,-0.0035 20.29344,-0.0035 -1.46803,-0.574659 z m -19.94803,-3.386309 c -1.98955,-1.305843 -2.84971,-2.129942 -2.84971,-2.730219 0,-0.196171 0.14856,-0.579287 0.33017,-0.851372 0.32619,-0.488776 0.3698,-0.494697 3.64216,-0.494697 3.27236,0 3.31597,0.006 3.64217,0.494697 0.18159,0.272085 0.33016,0.655201 0.33016,0.851372 0,0.489362 -0.73697,1.276471 -2.07252,2.213509 -1.4175,0.994538 -2.11321,1.113473 -3.02243,0.51671 z m -28.92898,2.720911 c -2.12738,-1.420271 -3.40134,-3.741065 -3.57397,-6.510728 -0.3486,-5.592073 4.06623,-13.760045 10.00746,-18.515113 0.54617,-0.437147 0.99305,-0.841478 0.99305,-0.898518 0,-0.32591 -6.76689,0.552352 -8.54911,1.109576 -1.41868,0.443558 -3.30609,1.569413 -4.18097,2.493983 -0.85484,0.903395 -1.64739,2.7562 -2.06878,4.836639 -0.47747,2.357133 -0.42795,8.149911 0.094,10.996012 0.6128,3.341524 1.30253,4.766763 2.7785,5.741412 0.96225,0.635439 3.40669,1.352127 4.67257,1.369961 l 0.7772,0.01095 -0.94994,-0.634172 z m 62.618321,0.124438 c 3.19824,-0.882578 4.3118,-2.780106 5.01348,-8.543062 0.36433,-2.992269 0.25211,-7.058891 -0.26071,-9.447865 -0.67256,-3.133168 -1.65111,-4.619353 -3.90007,-5.923324 -1.47036,-0.852533 -2.668891,-1.23945 -5.074171,-1.638063 -2.025,-0.335591 -5.72021,-0.655256 -5.72021,-0.494843 0,0.05614 0.44688,0.459731 0.99308,0.896878 5.93719,4.751832 10.355811,12.926846 10.007471,18.515113 -0.17329,2.780061 -1.6511,5.406821 -3.775361,6.710615 l -0.74856,0.459438 1.13273,-0.101924 c 0.623,-0.05606 1.672551,-0.250895 2.332321,-0.432963 z M 48.103789,94.975647 c 3.68553,-1.171376 7.08031,-3.813607 9.20587,-7.16508 3.94675,-6.223162 3.71122,-13.277292 -0.52931,-15.850955 -1.2315,-0.747403 -2.39759,-0.957865 -4.64188,-0.837799 -3.11215,0.166496 -6.14395,1.426203 -8.64587,3.592308 -2.73095,2.364422 -5.82271,7.518697 -6.72752,11.215368 -0.35582,1.453748 -0.35658,3.850067 0,5.114161 0.53779,1.914882 2.42278,3.581005 4.79664,4.239704 1.46487,0.406452 4.78842,0.250168 6.54368,-0.307707 z m -0.54536,-8.118726 c -2.91232,-1.760824 -2.94482,-6.565905 -0.0564,-8.337552 0.74717,-0.458307 2.53878,-0.645726 3.41532,-0.357276 0.90941,0.299282 2.1123,1.559428 2.5148,2.634538 0.3907,1.043642 0.41523,2.594106 0.0575,3.633134 -0.89497,2.599533 -3.72839,3.759011 -5.93123,2.427156 z m 2.8378,-1.611637 c 1.30258,-0.611154 1.92366,-1.812595 1.62205,-3.137807 -0.47509,-2.087582 -2.93149,-2.74937 -4.25315,-1.145839 -1.15543,1.401933 -0.84035,3.309612 0.68549,4.150011 0.83066,0.457505 1.20112,0.482945 1.94561,0.133635 z m 44.84211,10.032528 c 2.20438,-0.566855 4.00981,-2.028609 4.73837,-3.836388 0.451411,-1.120075 0.530601,-3.853141 0.156851,-5.413024 -0.895721,-3.738345 -3.996811,-8.939842 -6.734311,-11.295532 -2.74689,-2.363765 -6.08745,-3.680022 -9.35258,-3.685126 -3.73944,-0.0058 -6.06308,1.735652 -6.97157,5.224985 -1.31555,5.052739 1.41393,11.838369 6.36989,15.835826 3.52104,2.840063 8.19208,4.095323 11.79335,3.169259 z m -9.78812,-8.357031 c -2.69318,-1.579378 -3.16147,-5.443437 -0.93935,-7.751183 0.92425,-0.959864 1.82825,-1.273664 3.22059,-1.11794 2.34866,0.262671 3.74121,1.989852 3.75638,4.659038 0.009,1.648113 -0.64882,3.033212 -1.88032,3.956984 -1.18066,0.885642 -2.90016,0.990323 -4.1573,0.253101 z m 2.97569,-1.809132 c 1.52585,-0.840399 1.84095,-2.748078 0.68547,-4.150011 -0.62569,-0.759155 -1.68299,-1.087507 -2.60131,-0.807866 -0.68394,0.208276 -1.46676,1.140519 -1.65601,1.972119 -0.23432,1.02965 0.28264,2.385103 1.07875,2.828459 1.22643,0.682999 1.50652,0.700671 2.4931,0.157299 z M 20.748189,58.753373 c 0.75656,-1.354207 1.84824,-3.145076 2.42591,-3.979705 0.57767,-0.834634 1.05034,-1.556475 1.05034,-1.604086 0,-0.0476 -0.33906,-0.327676 -0.75348,-0.62235 -1.01213,-0.719655 -1.77984,-1.822987 -2.41581,-3.471918 -0.67696,-1.755121 -0.83097,-4.302842 -0.37581,-6.215817 0.65611,-2.757436 2.3934,-5.53406 4.31953,-6.903596 2.88728,-2.052979 6.35979,-2.275021 8.93935,-0.571595 1.26376,0.834539 2.4929,2.568267 2.84044,4.006458 l 0.28615,1.184298 3.79224,-2.302869 3.79219,-2.30287 -0.0918,-2.202419 c -0.28095,-6.744591 -3.41658,-11.126416 -8.93228,-12.482434 -2.11487,-0.519921 -6.25571,-0.329882 -8.29198,0.380546 -5.65587,1.973326 -10.34218,6.623208 -13.0237,12.922601 -2.68436,6.305985 -3.17076,13.50638 -1.28481,19.019496 1.25058,3.655728 4.23634,7.295586 6.22637,7.590442 0.0669,0.0099 0.74056,-1.089976 1.49712,-2.444182 z m 98.422481,1.68005 c 1.83078,-1.28223 3.73404,-4.057672 4.68116,-6.82631 1.48682,-4.346344 1.50315,-10.036471 0.0438,-15.274554 -1.14472,-4.108872 -3.02516,-7.625211 -5.74851,-10.749489 -2.58091,-2.960862 -5.40452,-4.866865 -8.88991,-6.000908 -1.94233,-0.631976 -6.0355,-0.78188 -8.02386,-0.293856 -5.472181,1.343086 -8.634861,5.770331 -8.914341,12.478598 l -0.0918,2.202419 3.79222,2.30287 3.79222,2.302869 0.286171,-1.184298 c 0.77039,-3.188249 4.0061,-5.436769 7.38717,-5.133403 4.05685,0.363995 7.57957,3.842233 8.71213,8.602136 0.45518,1.912975 0.30115,4.460696 -0.37579,6.215817 -0.63598,1.648931 -1.40369,2.752263 -2.41581,3.471918 -0.41443,0.294674 -0.75351,0.57473 -0.75351,0.62235 0,0.0476 0.47265,0.769452 1.05034,1.604086 0.57769,0.834629 1.66969,2.626099 2.42666,3.981042 1.54521,2.765836 1.51399,2.748603 3.04159,1.678713 z M 27.051649,49.755299 c 1.95899,-2.262275 4.51099,-4.740696 6.71505,-6.52153 1.64901,-1.332334 1.68394,-1.377461 1.68394,-2.175145 0,-2.629794 -2.49219,-4.836857 -5.44039,-4.818044 -3.88063,0.02478 -7.25799,3.496022 -7.91259,8.132477 -0.34966,2.476603 0.46445,5.000782 2.10144,6.515659 0.40867,0.378194 0.86287,0.687628 1.0093,0.687628 0.14644,0 0.97589,-0.819471 1.84325,-1.821045 z m 85.625791,1.133417 c 1.03019,-0.953347 1.64417,-2.107783 1.99504,-3.751146 0.25163,-1.178534 0.26848,-1.616383 0.10639,-2.764513 -0.49708,-3.520852 -2.58384,-6.435315 -5.50858,-7.693497 -1.43453,-0.617116 -3.43997,-0.608913 -4.80136,0.01964 -1.77828,0.82103 -3.04301,2.632893 -3.04301,4.359428 0,0.797684 0.0349,0.842806 1.68392,2.175145 2.2335,1.804609 4.79481,4.2973 6.69737,6.517962 0.85225,0.994734 1.67951,1.81221 1.83836,1.816612 0.15885,0.0045 0.62319,-0.301438 1.03187,-0.679632 z"
     id="path3068"
     style="fill:#000000" />
</svg>
