<?xml version="1.0" encoding="UTF-8" standalone="no"?>
<!-- Created with Inkscape (http://www.inkscape.org/) -->

<svg
   xmlns:dc="http://purl.org/dc/elements/1.1/"
   xmlns:cc="http://creativecommons.org/ns#"
   xmlns:rdf="http://www.w3.org/1999/02/22-rdf-syntax-ns#"
   xmlns:svg="http://www.w3.org/2000/svg"
   xmlns="http://www.w3.org/2000/svg"
   version="1.1"
   width="250"
   height="250"
   id="svg2985">
  <metadata
     id="metadata2991">
    <rdf:RDF>
      <cc:Work
         rdf:about="">
        <dc:format>image/svg+xml</dc:format>
        <dc:type
           rdf:resource="http://purl.org/dc/dcmitype/StillImage" />
        <dc:title></dc:title>
      </cc:Work>
    </rdf:RDF>
  </metadata>
  <defs
     id="defs2989" />
  <path
     d=""
     id="path3067"
     style="fill:#ffffff;fill-opacity:1" />
  <path
     d=""
     id="path3069"
     style="fill:#ffffff;fill-opacity:1" />
  <g
     transform="translate(37.910613,18.441944)"
     id="g3075">
    <path
       d="m 426.91697,226.82667 c 7e-5,-17.6 0.0673,-24.72278 0.14946,-15.8284 0.0821,8.89439 0.0821,23.29439 -1.3e-4,32 -0.0822,8.70562 -0.1494,1.4284 -0.14933,-16.1716 z"
       id="path3045"
       style="fill:#ffffff;fill-opacity:1" />
    <g
       transform="translate(6.5776258,-12.635381)"
       id="g3039"
       style="fill:#000000;stroke:#000000">
      <path
         d="m 346,484.96809 c -5.775,-0.40145 -20.4,-1.22968 -32.5,-1.8405 -54.5059,-2.75151 -63.68784,-3.39687 -74.5,-5.23624 -20.70509,-3.52235 -40.40152,-9.42649 -47.31432,-14.18277 -2.78803,-1.91828 -2.83472,-1.91779 -5,0.0526 -5.75739,5.23911 -11.76962,5.30467 -16.08561,0.17541 -4.0067,-4.76169 -4.17412,-8.43659 -0.77343,-16.97674 2.68404,-6.74042 2.84291,-7.74913 1.64747,-10.45982 -11.25493,-25.52085 -13.04695,-31.76302 -14.60925,-50.8888 -0.82215,-10.06478 -0.82385,-16.79152 -0.006,-25.40158 2.37794,-25.04701 7.86299,-38.41119 27.43659,-66.84851 14.22831,-20.67146 19.39641,-28.99539 26.15212,-42.12156 2.62137,-5.09325 6.75547,-11.47308 9.18688,-14.1774 l 4.42076,-4.91695 0.2226,-9.39657 c 0.19941,-8.41713 0.51442,-9.83743 3.02217,-13.62606 6.49377,-9.81056 22.49159,-14.78003 34.18019,-10.61753 3.50141,1.24691 4.64324,1.22293 9.5,-0.19951 16.96674,-4.9692 28.88594,1.105 33.53251,17.08866 1.44096,4.95671 2.12702,5.93035 4.83353,6.85961 11.51462,3.95345 39.25206,21.40162 46.72829,29.39431 13.38445,14.30906 16.37234,32.07507 8.88862,52.85189 -4.67231,12.97161 -4.52488,15.6612 1.2873,23.48306 5.48827,7.38597 5.99057,10.82282 2.60412,17.81828 -2.46513,5.0923 -14.1273,14.30578 -27.13172,21.43491 -12.6291,6.92339 -12.28057,5.68332 -3.8826,13.81442 9.47555,9.17445 12.55077,15.9644 14.69654,32.44933 0.35796,2.75 1.11382,5.5625 1.67969,6.25 1.70845,2.07566 6.50652,1.41885 12.78397,-1.75 10.43858,-5.26938 20.67425,-3.55609 28.12442,4.70758 5.27086,5.84639 7.20308,12.5593 6.69199,23.24921 -0.55866,11.68491 -4.2276,19.54882 -10.51762,22.54321 -3.44524,1.64012 -4.51654,2.85777 -5.95366,6.76702 -3.88969,10.5807 -8.90445,11.81716 -39.34513,9.70107 z m 30.13865,-9.10674 c 1.97034,-1.97034 2.09305,-2.85571 1.55922,-11.25 -0.74118,-11.65462 -2.87547,-18.59695 -7.09163,-23.06738 C 368.13251,438.92105 366.4328,438 364.06618,438 c -4.14993,0 -6.94289,1.54553 -8.04863,4.45384 -2.21136,5.81631 5.41456,27.08434 11.68572,32.59049 4.00528,3.51668 5.58291,3.66949 8.43538,0.81702 z m -80.55913,-10.87099 c 1.32446,-7.96304 3.42169,-12.14703 7.66943,-15.30056 5.01052,-3.71983 9.18381,-4.6898 20.17777,-4.6898 11.70643,0 13.07122,-0.61845 17.04168,-7.72238 2.15878,-3.86248 2.45088,-5.15936 1.58841,-7.05227 -0.58124,-1.2757 -1.06346,-4.43578 -1.07159,-7.0224 -0.0209,-6.66008 -2.55175,-16.57751 -6.03523,-23.65006 -5.94896,-12.07825 -15.7142,-20.52503 -29.34094,-25.37946 -6.22079,-2.21611 -8.79584,-2.54021 -20.60905,-2.59385 -22.32608,-0.10139 -29.91076,3.29913 -30.78163,13.80067 -0.58916,7.10451 0.99089,11.52073 6.20222,17.33515 5.79076,6.4609 7.57941,10.26415 7.57941,16.11625 0,4.44199 -0.34047,5.19066 -3.43328,7.54966 -1.8883,1.44028 -4.33674,2.61869 -5.44098,2.61869 -1.10424,0 -2.30779,0.48555 -2.67457,1.07901 -0.95272,1.54153 -10.01598,0.19291 -15.22836,-2.26601 -6.04258,-2.85055 -9.28686,-7.51405 -10.12068,-14.54799 -0.50104,-4.22667 -2.01985,-8.16657 -5.69185,-14.76501 -2.75466,-4.95 -5.86502,-11.025 -6.91192,-13.5 -2.4526,-5.79826 -41.0452,-45 -44.30075,-45 -2.53489,0 -3.39618,2.60906 -6.22248,18.84937 -2.34601,13.4805 -2.56949,30.21281 -0.53206,39.83525 4.32211,20.41252 23.54036,53.07289 34.55693,58.72761 13.83372,7.10075 32.75516,10.55735 68.97183,12.59991 10.7095,0.604 19.68756,1.31391 19.95123,1.57759 0.26368,0.26367 1.17636,0.34702 2.02818,0.1852 1.06662,-0.20262 1.88482,-2.31472 2.62828,-6.78457 z m 98.5587,-13.45946 c 1.62205,-5.95845 0.39826,-18.80406 -2.23837,-23.49531 -3.59374,-6.39419 -10.93099,-8.09536 -15.4453,-3.58104 -3.33758,3.33757 -3.09655,4.7929 1.26333,7.62791 5.33557,3.46945 7.73756,7.64993 9.21921,16.04538 0.71559,4.05469 1.75672,8.24076 2.31362,9.30238 0.99345,1.8938 1.03877,1.89438 2.40138,0.0309 0.76385,-1.04463 1.88261,-3.71323 2.48613,-5.93022 z m -69.4833,-86.07403 c 0.86398,-2.25148 -0.17813,-2.85249 -5.95586,-3.43489 -5.80648,-0.58531 -7.22501,-2.67835 -4.13173,-6.09638 2.31768,-2.56101 7.90324,-2.49983 14.64565,0.16041 5.38963,2.12649 10.75583,2.07142 14.91226,-0.15304 2.72522,-1.45849 2.29598,-3.61259 -0.87524,-4.39228 -7.70203,-1.89367 -9.81811,-7.84391 -4.5,-12.65361 5.77077,-5.21909 5.79454,-5.22644 10.76362,-3.32873 6.50826,2.48553 7.26358,1.28713 4.47336,-7.09747 -2.83654,-8.52381 -2.38021,-12.77819 2.84426,-26.51726 5.1119,-13.443 5.78143,-18.00354 3.78635,-25.79107 -3.47982,-13.58306 -8.79649,-20.28929 -24.11759,-30.42094 -9.71409,-6.42379 -32.50768,-17.90703 -39,-19.64789 -2.2,-0.58991 -6.34133,-1.07508 -9.20295,-1.07814 -2.86162,-0.003 -6.39841,-0.55027 -7.85954,-1.21601 -2.2164,-1.00985 -2.84708,-0.94993 -3.80612,0.36162 -0.87809,1.20087 -3.74463,1.69669 -12.14045,2.09991 -9.26377,0.4449 -12.53528,1.08586 -20.81844,4.0788 -15.89643,5.74382 -19.36335,9.40796 -30.61765,32.35937 -3.82676,7.8041 -9.2296,17.85224 -12.0063,22.32921 -2.7767,4.47696 -5.04775,8.44179 -5.04676,8.81073 9.8e-4,0.36893 2.02301,1.94773 4.49339,3.50843 2.47038,1.56071 10.88585,9.88571 18.70104,18.5 16.52383,18.2134 26.57968,28.19594 32.57422,32.33672 9.94672,6.87079 26.99731,12.63022 43.72956,14.77119 4.4,0.563 10.025,1.67546 12.5,2.47215 6.3035,2.02904 15.88269,2.05157 16.65492,0.0392 z m -33.19772,-21.3199 c -13.38245,-8.16088 -9.75006,-34.27919 6.93849,-49.89051 6.3608,-5.95022 12.94394,-9.24646 18.46672,-9.24646 1.37838,0 4.42153,0.92723 6.76257,2.0605 3.2781,1.58691 4.84466,3.24095 6.81572,7.19634 9.46395,18.99167 -9.94895,51.75407 -30.65746,51.73942 -3.38067,-0.002 -6.37899,-0.67195 -8.32604,-1.85929 z m 28.95306,-17.76372 C 321.13462,324.48562 319.39308,322 317.34617,322 c -1.70262,0 -2.77674,2.43558 -1.98454,4.5 0.76899,2.00396 4.26468,1.9162 5.04863,-0.12675 z m -5.16906,-15.5522 c 7.88131,-3.45157 9.7588,-4.59503 9.7588,-5.94349 0,-1.54288 -2.48373,-0.95762 -10.08312,2.37595 -8.65605,3.79709 -9.91688,4.5352 -9.91688,5.80551 0,1.63923 2.7704,1.03382 10.2412,-2.23797 z M 257.25,191.33772 c -0.6875,-0.27741 -1.25,-2.05153 -1.25,-3.94249 0,-4.55133 3.74234,-6.61152 7.83602,-4.31379 3.28339,1.84292 3.88254,4.46708 1.59665,6.99296 -1.64124,1.81355 -5.38618,2.39173 -8.18267,1.26332 z m 5.63989,-2.70504 c 0.8627,-1.03949 0.77523,-1.66572 -0.36482,-2.61188 C 260.76433,184.55952 258,185.34216 258,187.30195 c 0,2.85495 2.95703,3.65968 4.88989,1.33073 z M 245,177 c -2.57771,-2.57771 -2.52751,-4.43064 0.18856,-6.96104 C 249.25223,166.25308 257,168.36342 257,173.25616 257,175.43696 252.26392,179 249.36514,179 248.06431,179 246.1,178.1 245,177 z m 8.03421,-2.06392 c 2.22989,-4.16659 -3.84462,-6.8063 -6.37409,-2.7699 -0.75469,1.20428 -0.67975,2.10524 0.27031,3.25 1.83257,2.20811 4.78957,1.97552 6.10378,-0.4801 z m -58.33436,-0.38088 c -3.8129,-2.02733 -5.16167,-2.283 -7.89894,-1.49728 -2.70394,0.77615 -4.15979,0.52263 -8.05,-1.40185 -4.74006,-2.34488 -4.75909,-2.3459 -10,-0.53536 -2.888,0.9977 -6.60091,1.82618 -8.25091,1.84107 -8.4039,0.0758 -15.75479,-5.22466 -17.25422,-12.44143 -0.72014,-3.46608 -1.24562,-4.04059 -4.25957,-4.65701 C 135.05696,155.05973 132,151.83609 132,148.4962 132,145.95229 130.31244,145 125.80437,145 c -4.62705,0 -10.68057,-3.93262 -13.52512,-8.78647 -3.13468,-5.34893 -2.836,-12.61664 0.71596,-17.42092 2.26444,-3.06281 2.26594,-3.08757 0.28561,-4.68585 -3.22291,-2.60111 -3.42503,-4.78193 -0.73904,-7.97404 2.89744,-3.44341 3.02271,-4.41969 0.80332,-6.260275 -3.19253,-2.647623 -4.51165,-7.535241 -3.28162,-12.15901 1.67875,-6.310516 5.1427,-10.193198 11.41224,-12.791777 5.71933,-2.370529 5.74773,-2.426519 3.82787,-7.547086 -0.68331,-1.822486 4.05519,-6.565746 7.76638,-7.774191 3.41632,-1.112426 3.42873,-1.138847 3.10592,-6.608636 -0.26211,-4.441145 0.1205,-6.147253 2,-8.918249 4.37753,-6.453915 15.75367,-9.951771 23.18155,-7.127698 1.87265,0.711983 2.7978,0.572074 3.74227,-0.565936 2.6904,-3.241739 7.10425,-4.639145 12.97247,-4.107034 4.51592,0.40949 6.29448,0.124669 8.56373,-1.371411 3.70314,-2.441407 6.97089,-2.39602 11.74573,0.163142 3.81987,2.047327 3.86982,2.048303 5.98519,0.116973 4.41563,-4.031469 8.91566,-5.625682 15.63317,-5.538319 7.74986,0.100788 15.87149,3.226918 19.45852,7.48986 C 241.38543,35.42307 242.68882,36 245.93544,36 250.69804,36 254,38.674214 254,42.531385 c 0,2.81881 0.40968,3.038175 7.43972,3.983689 3.77738,0.508043 5.74053,1.465174 8.34296,4.067608 3.16642,3.166418 3.37477,3.769048 2.99412,8.660276 -0.22502,2.891373 -0.74552,5.993785 -1.15667,6.894249 -0.5682,1.244433 0.16738,2.084098 3.06616,3.5 3.50536,1.712179 3.81371,2.197957 3.81371,6.008089 0,3.235606 0.60349,4.706422 2.75,6.702251 3.18891,2.965052 3.40257,4.739154 1.05033,8.721175 -1.63355,2.765387 -1.61669,2.965873 0.43339,5.154292 7.00882,7.481756 5.13185,23.643336 -3.37951,29.099176 -2.60662,1.67087 -3.27627,2.68306 -2.87674,4.34835 0.8432,3.51458 -0.48681,5.40454 -5.23587,7.44022 -4.03697,1.73045 -4.4164,2.18084 -3.91955,4.65258 0.8725,4.34049 -2.79564,10.84386 -7.75596,13.75079 -3.16329,1.85382 -5.67804,2.48587 -9.89053,2.48587 -5.48601,0 -5.68991,0.0986 -7.07861,3.42222 -2.06054,4.93155 -5.6524,6.97909 -10.96543,6.25086 -3.90842,-0.53571 -4.51405,-0.32325 -6.41752,2.25134 -5.34157,7.22485 -21.12927,9.62078 -30.51415,4.63078 z m 23.19088,-1.49672 c 3.53305,-1.89083 5.4716,-5.26219 6.22418,-10.82459 0.58964,-4.35808 1.40214,-6.27376 3.3862,-7.98389 3.48412,-3.00307 8.84657,-2.89731 13.99889,0.27609 2.2,1.35501 4.9,2.46346 6,2.46321 4.45484,-10e-4 9.73495,-2.29092 13.14471,-5.70067 3.52329,-3.52329 3.59278,-3.74239 2.99644,-9.44778 L 263.03066,136 l 2.90288,0 c 6.49308,0 9.26958,-3.30678 5.97043,-7.11072 l -2.03826,-2.35014 2.31715,-0.85306 c 5.49767,-2.02399 7.4181,-3.47725 9.53565,-7.21598 4.38612,-7.74411 2.35842,-18.722117 -4.16949,-22.573679 C 275.59706,94.744736 274,93.666347 274,93.5 c 0,-0.166347 1.6059,-1.249951 3.56866,-2.40801 4.70356,-2.775165 4.4025,-5.873139 -0.81866,-8.424348 C 272.63276,80.65584 272.2519,79.865753 274.5,78 c 3.66025,-3.037741 0.58426,-7 -5.43426,-7 C 267.37958,71 266,70.707352 266,70.349672 c 0,-0.357681 1.15258,-3.006121 2.56129,-5.885424 2.41307,-4.932137 2.47578,-5.439771 1.08353,-8.77189 C 267.52888,50.628215 263.75078,48.5 256.87663,48.5 c -3.13946,0 -5.98362,-0.27509 -6.32035,-0.611312 -0.33673,-0.336221 -0.17849,-1.752156 0.35165,-3.146522 1.60524,-4.222092 -0.63285,-6.188783 -6.1779,-5.428749 -4.39841,0.602869 -4.64303,0.499208 -6.58368,-2.789952 -3.75271,-6.360357 -15.21631,-9.926106 -24.17172,-7.518601 -2.9723,0.799052 -5.78126,2.575189 -8.36638,5.290145 l -3.89174,4.087217 -2.10826,-2.627954 C 196.83155,32.293091 192.73294,30.770839 189.5,32 c -1.375,0.522774 -2.5,1.610079 -2.5,2.416232 0,2.463628 -1.93048,2.844641 -5.59714,1.104694 C 176.11089,33.009724 168,35.530491 168,39.686372 c 0,2.320946 -2.33077,2.439222 -6.47107,0.328377 -4.91769,-2.507181 -8.81671,-2.521108 -14.25827,-0.05093 -5.64762,2.563719 -8.54108,7.215176 -7.7982,12.53618 1.30061,9.315824 1.4112,8.968939 -2.97246,9.323844 -2.2,0.178114 -4.7875,1.035358 -5.75,1.904987 -2.14578,1.938736 -2.27144,5.593522 -0.25,7.271169 3.05546,2.535803 1.17407,4.993295 -3.83179,5.005123 -1.19251,0.0028 -3.82155,1.015318 -5.8423,2.25 -10.66481,6.516212 -11.39018,17.299001 -1.50751,22.409528 2.29521,1.1869 2.6,1.72875 1.62992,2.89762 C 120.29205,104.35302 119.28314,105 118.7063,105 116.96893,105 114,108.19027 114,110.05716 c 0,1.04225 1.21041,2.16914 3,2.793 3.65403,1.2738 3.73253,2.11304 0.48318,5.16564 -5.03359,4.72882 -5.68186,13.91931 -1.3686,19.40273 3.28585,4.17729 7.40659,5.80075 13.75598,5.4195 L 135.5,142.5 l 0,4.32867 c 0,5.30291 2.3295,7.48154 7.05226,6.59555 3.13655,-0.58842 3.15185,-0.57037 3.74242,4.41612 0.77154,6.5144 2.2656,8.75887 7.53053,11.3128 5.1069,2.47728 11.48693,2.04027 16.90779,-1.15811 4.29585,-2.53461 4.66049,-2.51063 7.67609,0.50497 2.71383,2.71383 6.04943,3.15947 10.03979,1.34134 2.05452,-0.9361 2.87993,-0.86474 4.29706,0.3715 6.06651,5.29215 18.04125,6.64734 25.14479,2.84564 z M 197,117.27274 c -3.68903,-1.40026 -10.13494,-6.633 -11.55604,-9.38112 C 182.6933,102.57245 186.21279,96 191.81181,96 c 3.52592,0 4.88249,3.010984 5.29385,11.75 0.0582,1.2375 0.48175,2.25 0.94111,2.25 1.41848,0 2.35182,-2.29832 2.55581,-6.29358 0.44665,-8.748185 9.46559,-10.686816 12.2715,-2.63778 1.27795,3.66592 -0.048,6.90187 -4.5348,11.0672 -2.44373,2.26862 -8.63531,6.02346 -9.53962,5.78521 -0.16481,-0.0434 -0.97466,-0.33516 -1.79966,-0.64831 z M 238,163 c 2.6227,-2.6227 2.53637,-5.51091 -0.22251,-7.4433 -3.13209,-2.1938 -5.48514,-1.93996 -8.32294,0.89785 -3.01477,3.01476 -3.05143,3.91146 -0.26599,6.50649 2.77765,2.58778 6.24728,2.60312 8.81144,0.039 z"
         id="path3041"
         style="fill:#000000;stroke:#000000;stroke-opacity:1" />
    </g>
    <path
       d="m 300.50059,349.26647 c -34.58847,-7.44402 -37.64532,-9.29933 -70.61939,-42.86126 l -25.36456,-25.81675 7.86992,-15.08494 c 12.2387,-23.45898 18.84095,-34.34444 23.49354,-38.73498 6.28661,-5.93253 18.86258,-10.31217 36.19029,-12.60344 22.80736,-3.01585 29.65866,-1.8301 50.22828,8.69301 29.3759,15.02827 40.42799,25.38422 43.96686,41.19752 1.70629,7.6245 1.52186,9.05986 -2.94155,22.89314 -5.0098,15.5267 -5.70267,22.00351 -3.26366,30.50785 0.81548,2.84343 1.26497,5.38759 0.99887,5.6537 -0.26612,0.26611 -2.67677,-0.28062 -5.357,-1.21495 -4.44631,-1.55 -5.26636,-1.32207 -9.36237,2.60215 -5.31658,5.09361 -5.39468,10.9463 -0.18056,13.5312 5.16773,2.5619 5.4231,3.25476 1.89544,5.14271 -2.51928,1.34828 -5.39175,1.19345 -12.92935,-0.69691 -10.70899,-2.68571 -15.76858,-1.49268 -15.76858,3.71817 0,2.1135 1.42243,3.16241 5.26653,3.88357 6.00589,1.12671 5.67159,3.7412 -0.45295,3.54244 -2.23264,-0.0725 -12.88403,-2.03096 -23.66976,-4.35223 z m 19.95046,-19.86209 c 6.65172,-4.11099 13.04576,-12.92867 16.95863,-23.38676 3.70628,-9.90593 3.84495,-15.12463 0.61629,-23.19384 -8.16434,-20.40468 -37.1136,-8.82374 -46.39305,18.5592 -4.54318,13.40655 -1.7327,26.56018 6.60493,30.91241 4.99107,2.60533 15.54173,1.23218 22.2132,-2.89101 z"
       id="path3059"
       style="fill:#ffffff;fill-opacity:1;stroke:#ffffff" />
    <path
       d="m 266.86329,456.09284 c -33.1525,-2.85372 -56.44415,-8.49492 -63.97275,-15.49409 -10.99075,-10.21785 -27.03042,-40.46123 -30.5248,-57.55561 -2.04755,-10.01654 -2.16312,-14.47747 -0.7261,-28.02642 0.93996,-8.86257 2.60275,-19.14256 3.69508,-22.84443 l 1.98606,-6.73067 10.18994,8.71828 c 13.79605,11.80358 32.25837,33.06496 38.62531,44.48128 2.87425,5.1537 6.69499,13.93091 8.49054,19.5049 3.85037,11.95287 7.19022,15.99903 15.0006,18.17292 7.87317,2.19136 12.01209,2.02363 17.26677,-0.69975 9.67586,-5.0148 9.65814,-13.82536 -0.054,-26.87179 -6.71436,-9.01944 -8.13488,-17.86104 -3.8538,-23.98682 3.01407,-4.31283 13.24862,-6.68238 28.67184,-6.63821 32.07592,0.0919 51.30695,18.94389 55.53794,54.44341 0.71875,6.03051 0.28285,8.69312 -2.03618,12.43728 -3.23913,5.22975 -7.83569,6.74576 -20.45311,6.74576 -8.78314,0 -17.36866,3.56392 -19.87,8.24819 -0.95279,1.7843 -2.5215,6.35576 -3.48602,10.1588 l -1.75366,6.91463 -8.32794,0.20314 c -4.58036,0.11173 -15.56292,-0.41963 -24.40567,-1.1808 z"
       id="path3061"
       style="fill:#ffffff;fill-opacity:1;stroke:#ffffff;stroke-width:1.01619673;stroke-opacity:1" />
    <path
       d="m 208.5453,161.07128 c -1.62476,-0.41271 -4.51769,-1.77488 -6.42872,-3.02704 -2.21953,-1.45428 -5.13354,-1.94486 -8.06723,-1.35812 -2.98808,0.59761 -5.86209,0.0867 -8.22617,-1.46227 -3.32173,-2.17648 -4.29248,-2.16194 -11.31173,0.16948 -11.43914,3.79948 -18.8388,0.20038 -20.96535,-10.19729 -0.80238,-3.92323 -1.88187,-5.0402 -5.46443,-5.65416 -3.73911,-0.64078 -4.54131,-1.56061 -4.93721,-5.66111 -0.45429,-4.70535 -0.73003,-4.896 -7.08123,-4.896 -13.25819,0 -19.42638,-11.96156 -11.61586,-22.52586 l 3.30678,-4.47266 -3.35558,-2.35033 -3.35557,-2.350334 4.14228,-3.840938 4.14228,-3.840937 -4.54603,-3.825233 c -5.87352,-4.94224 -6.01645,-10.666847 -0.39767,-15.927546 2.2816,-2.136196 5.84541,-4.382745 7.91959,-4.992332 6.11275,-1.796497 7.66077,-3.607604 5.72835,-6.701891 -2.44093,-3.90855 -0.62029,-7.051347 4.70146,-8.115697 4.46007,-0.892014 4.65514,-1.248666 4.65514,-8.511213 0,-12.073184 7.72759,-17.35257 20.01214,-13.672028 5.73315,1.717694 6.34049,1.610161 8.71957,-1.543846 2.2514,-2.984748 3.46706,-3.282379 10.16611,-2.488975 5.84951,0.692787 7.80205,0.397895 8.44412,-1.27531 1.20359,-3.136512 7.55194,-2.676831 10.6739,0.772892 2.63639,2.913185 2.73642,2.896785 8.15339,-1.336809 9.45749,-7.39143 19.92227,-6.908077 29.33324,1.354856 2.70068,2.371231 6.92476,4.540374 9.38685,4.820317 3.40536,0.387194 4.41223,1.225642 4.20783,3.50396 -0.33843,3.772218 1.95279,5.249268 8.18829,5.278648 6.98584,0.03292 11.52019,4.93081 10.28442,11.108985 -1.86753,9.336633 -1.70027,10.676165 1.40642,11.263751 4.66127,0.881619 5.99463,2.878478 3.7378,5.597792 -1.73937,2.095809 -1.40825,2.935573 2.4021,6.09222 l 4.41956,3.661331 -3.67771,3.117003 -3.67771,3.117002 4.24846,3.387615 c 3.39951,2.710674 4.39753,4.93879 4.99435,11.150152 0.68356,7.113915 0.36197,8.146465 -3.84883,12.357255 -2.52709,2.52709 -5.66516,4.59472 -6.9735,4.59472 -2.65644,0 -3.19514,2.33439 -0.87028,3.77123 3.07628,1.90124 1.40141,5.37657 -3.01699,6.26025 -4.07209,0.81442 -4.52548,1.47731 -4.52548,6.61642 0,4.52569 -0.96349,6.52204 -4.64122,9.61665 -5.19028,4.36734 -9.92003,4.8299 -18.5759,1.8167 -9.75874,-3.39712 -14.03653,-0.71434 -17.34756,10.87939 -2.47193,8.65556 -10.2022,12.32659 -20.46647,9.71931 z"
       id="path3063"
       style="fill:#ffffff;fill-opacity:1" />
    <path
       d="m 236.32674,149.27373 c -2.70631,-3.2609 1.4182,-7.4432 5.9286,-6.01165 3.55223,1.12743 4.11427,3.80065 1.37501,6.53991 -2.45698,2.45698 -4.97738,2.27468 -7.30361,-0.52826 z"
       id="path3065"
       style="fill:#ffffff;fill-opacity:1" />
    <path
       d="m 372.9842,458.82438 c -4.64865,-6.0947 -10.15985,-21.43096 -9.56052,-26.60446 0.29145,-2.51578 1.78698,-4.2166 4.56015,-5.18612 7.75687,-2.71184 13.08844,5.69013 15.50634,24.43626 1.64234,12.7331 -3.60284,16.40479 -10.50597,7.35432 l 0,0 z"
       id="path3071"
       style="fill:#ffffff;fill-opacity:1" />
    <path
       d="m 394.20706,434.92637 c -1.8371,-6.65149 -4.24362,-11.18467 -7.98201,-15.03576 l -5.35198,-5.51332 4.02357,-2.63634 c 3.86489,-2.53238 4.18376,-2.5176 8.08558,0.37488 6.972,5.16843 10.14843,20.9911 5.79061,28.84452 -1.83357,3.30434 -2.07456,2.98585 -4.56577,-6.03398 z"
       id="path3073"
       style="fill:#ffffff;fill-opacity:1" />
    <path
       d="m 558.63978,300.48783 c -1.70307,-2.80356 -6.03197,-8.80178 -8.98261,-12.44651 -1.23212,-1.52196 -2.1615,-2.84591 -2.06529,-2.94212 0.16716,-0.16716 5.39095,5.71839 8.24722,9.29198 1.39526,1.74567 4.64193,7.86305 4.33568,8.1693 -0.0944,0.0944 -0.78516,-0.83828 -1.535,-2.07265 l 0,0 z"
       transform="translate(-333.37728,75.424723)"
       id="path3866"
       style="fill:#ffffff;fill-opacity:1;stroke:#000000;stroke-width:0.37712362;stroke-opacity:1" />
    <path
       d=""
       transform="translate(-333.37728,75.424723)"
       id="path3868"
       style="fill:#ffffff;fill-opacity:1;stroke:#000000;stroke-width:0.37712362;stroke-opacity:1" />
    <path
       d=""
       transform="translate(-333.37728,75.424723)"
       id="path3870"
       style="fill:#ffffff;fill-opacity:1;stroke:#000000;stroke-width:0.37712362;stroke-opacity:1" />
    <path
       d=""
       transform="translate(-333.37728,75.424723)"
       id="path3872"
       style="fill:#ffffff;fill-opacity:1;stroke:#000000;stroke-width:0.37712362;stroke-opacity:1" />
    <g
       transform="matrix(0.14768861,0,0,0.14768861,150.34045,4.280337)"
       id="layer1">
      <path
         d="m 336.84736,863.78578 c -1.85029,-0.14803 -8.20857,-0.86661 -14.1295,-1.59684 -17.49398,-2.15744 -21.34141,-2.28905 -30.82998,-1.05446 -9.34417,1.21574 -10.65226,1.18115 -37.79904,-0.99889 -8.88141,-0.71321 -24.7771,-1.60619 -35.32377,-1.98439 -26.14132,-0.93739 -35.26424,-2.0152 -46.09457,-5.44578 -14.10739,-4.46855 -21.73633,-12.29939 -28.78523,-29.54704 -6.74914,-16.51423 -10.41822,-31.70605 -19.66258,-81.41286 -7.6987,-41.39566 -29.538104,-147.95837 -34.197504,-166.86272 -7.2005,-29.21404 -7.6204,-31.0576 -9.1194,-40.0336 -2.1302,-12.75489 -2.7629,-20.27846 -2.7629,-32.85049 0,-17.56361 1.5828,-23.30589 7.4012,-26.85074 4.0459,-2.46499 34.646804,-15.93274 39.828604,-17.529 2.42859,-0.74811 2.63203,-0.99015 2.36691,-2.816 -0.15952,-1.09864 0.11062,-3.67223 0.60031,-5.71909 2.36978,-9.90518 0.40255,-16.53024 -10.24792,-34.51205 -2.3589,-3.98274 -4.2889,-7.52125 -4.2889,-7.86337 0,-1.10706 8.9708,-9.71361 12.94865,-12.42279 4.65262,-3.16879 5.04924,-3.06777 11.44477,2.91493 4.78,4.47146 9.90624,11.48375 13.23528,18.10483 2.42813,4.82928 2.85971,4.80445 5.87331,-0.33787 1.94783,-3.32372 4.54172,-5.60181 6.37836,-5.60181 1.52275,0 1.54171,-0.36552 0.21379,-4.12062 -1.692,-4.78461 -2.0099,-12.46415 -0.7022,-16.96251 0.61911,-2.12966 1.6431,-4.29306 2.27554,-4.80757 0.63244,-0.5145 2.48751,-1.9391 4.1224,-3.16576 3.55941,-2.67067 7.96562,-8.4268 12.38757,-16.18277 3.67331,-6.44284 8.1216,-12.14422 10.97348,-14.06471 2.07672,-1.3985 6.34945,-1.32909 13.2939,0.21593 4.17796,0.92952 8.48013,4.60052 8.48013,7.23599 0,3.4425 -1.97984,8.4678 -5.58394,14.17334 -1.98695,3.14549 -3.96562,6.74828 -4.39702,8.00619 -0.9558,2.78696 -1.01788,5.45048 -0.12705,5.45048 1.20032,0 2.61268,-2.97042 3.7023,-7.78651 0.91754,-4.0555 1.52612,-5.21466 4.11819,-7.84378 7.63253,-7.74164 23.5089,-12.7706 40.63904,-12.87272 10.97086,-0.0654 17.64168,2.01097 23.14955,7.20556 1.61731,1.52533 2.60381,2.04251 2.93231,1.53733 0.27229,-0.41872 0.56693,-5.99181 0.65476,-12.38465 0.19217,-13.98625 0.80724,-15.8488 6.14528,-18.60921 1.85817,-0.96089 3.89039,-1.1059 13.00946,-0.92828 l 10.80728,0.21049 2.56071,-6.39192 c 3.58172,-8.94049 5.33267,-18.17923 5.33267,-28.1373 0,-9.7843 -1.13205,-16.10931 -4.28086,-23.91823 -3.10525,-7.70089 -3.60102,-11.08366 -2.17257,-14.82399 1.54959,-4.05756 4.1656,-5.37327 9.95113,-5.00487 3.37298,0.21477 5.62324,0.87682 9.51085,2.79818 4.89742,2.42043 5.21905,2.72868 8.39659,8.04714 8.34429,13.96643 13.5822,26.56043 13.5822,32.657 0,1.27193 0.24881,1.51032 1.17746,1.12819 15.59379,-6.41669 22.61325,-6.40688 34.14461,0.0477 12.24553,6.85433 16.25953,8.53409 21.04233,8.80567 3.19107,0.1812 5.4874,-0.0938 7.78129,-0.93192 l 3.25425,-1.18898 0.27966,-4.61627 c 0.35556,-5.86913 2.1737,-9.97447 6.03108,-13.61812 4.57869,-4.32498 6.63308,-4.77214 11.84926,-2.57911 7.4186,3.11899 11.59908,5.48372 13.79011,7.80053 2.33649,2.47062 4.26632,6.56798 4.26632,9.05813 0,1.89331 -0.0142,1.89232 7.7312,0.53755 11.86172,-2.07477 15.99758,-4.33136 20.61558,-11.24821 5.61772,-8.41423 9.38294,-11.35074 14.55402,-11.35074 3.70583,0 6.03374,1.53319 7.89813,5.20181 2.89018,5.68712 1.09296,20.91057 -3.63045,30.75197 l -1.97919,4.12369 1.23611,2.38905 c 1.45452,2.81119 7.87021,10.12663 8.88114,10.12663 0.47031,0 0.54101,-2.32353 0.21586,-7.09393 -0.45984,-6.74657 -0.40613,-7.20766 1.09709,-9.41659 0.86934,-1.27747 2.61761,-2.81756 3.88506,-3.42243 2.81722,-1.34447 8.43166,-1.37685 11.56728,-0.0667 8.46915,3.53863 14.05086,17.32897 14.05086,34.71444 0,9.48301 -1.18835,16.4005 -3.94424,22.9597 l -2.00184,4.76452 1.20802,4.22423 c 0.66441,2.32332 2.60783,7.9033 4.31871,12.39994 1.71088,4.49664 3.11069,8.63988 3.11069,9.2072 0,2.64294 1.27101,0.30902 4.29682,-7.89015 6.54702,-17.74072 11.07624,-24.74066 18.49208,-28.5796 4.93588,-2.55514 6.79314,-2.68901 11.72196,-0.8449 4.47878,1.67573 8.66009,5.18757 11.07592,9.30257 1.46712,2.49902 1.84361,3.98292 1.84555,7.27404 0.003,5.10516 -0.90593,6.25943 -6.54931,8.31711 -2.96034,1.0794 -5.12268,2.49914 -7.63942,5.01588 -3.40371,3.40371 -8.05026,11.20208 -7.18823,12.06411 0.23393,0.23394 1.50669,0.22739 2.82835,-0.0145 7.40023,-1.35462 15.1971,-7.40208 19.37024,-15.02407 2.93985,-5.3695 3.76924,-6.08267 7.07379,-6.08267 3.58155,0 7.18405,2.01303 10.80016,6.03503 4.07507,4.53246 5.86528,8.37091 5.86528,12.57601 0,2.81015 -0.44648,4.05743 -2.63352,7.35694 -1.44843,2.18521 -4.7851,6.07125 -7.41481,8.63566 -2.62972,2.5644 -4.53531,4.90853 -4.23467,5.20918 0.68151,0.68151 11.08195,2.26604 23.02983,3.50864 8.51742,0.88583 16.11342,2.7983 17.79086,4.47926 0.446,0.44695 0.70301,4.91144 0.68784,11.94839 -0.0281,13.04048 -1.01834,18.72996 -6.43421,36.96914 -4.95085,16.67311 -6.96254,25.08221 -10.02017,41.88546 -3.76397,20.68496 -5.55237,28.42064 -10.10922,43.72707 -2.14947,7.22005 -5.3149,19.63703 -7.03429,27.59328 -1.71938,7.95626 -4.46565,20.37004 -6.10281,27.58618 -1.63717,7.21614 -4.81453,21.44657 -7.06081,31.62318 -6.69077,30.31207 -9.1173,39.67908 -11.64547,44.95448 -1.77195,3.69744 -2.46347,6.18582 -2.80301,10.08625 -0.77555,8.90939 -3.69694,18.93104 -8.76644,30.07271 -0.8419,1.85029 -3.56265,7.9058 -6.04614,13.45667 -10.95934,24.49538 -16.18458,33.17722 -24.50347,40.71305 -8.4314,7.63776 -12.83129,10.92818 -28.49443,21.30936 -18.57439,12.31069 -23.76135,16.12041 -43.01379,31.59266 l -15.37496,12.35618 -7.54473,0.007 c -8.01444,0.007 -24.49485,1.07822 -51.95174,3.37992 -15.78939,1.32359 -51.96961,2.26866 -60.55502,1.58169 z m -78.38511,-14.44647 c 6.47603,-0.35237 21.61478,-0.81736 33.64168,-1.03334 18.40352,-0.33043 23.25252,-0.21019 30.61393,0.75909 13.10054,1.72494 26.89851,1.95909 43.23778,0.73379 10.13876,-0.7603 23.37543,-1.07283 45.44156,-1.07283 l 31.13561,0 3.31359,-3.36417 c 1.98152,-2.01177 3.90814,-3.36417 4.79259,-3.36417 1.58548,0 4.7761,-4.66987 12.8716,-18.8393 14.32295,-25.06922 31.85519,-66.64912 46.81073,-111.01754 8.64817,-25.65639 13.61151,-39.97169 22.51173,-64.92844 18.56476,-52.05672 25.46257,-74.71108 31.34431,-102.94353 3.30667,-15.87201 5.94162,-34.39921 6.85156,-48.17529 l 0.47111,-7.13245 -4.96313,-0.42429 c -13.64213,-1.16628 -25.41558,-1.19379 -48.69731,-0.11381 -27.0389,1.25427 -33.78304,1.13115 -63.24636,-1.15465 -16.04239,-1.24459 -24.73551,-1.43201 -74.3481,-1.60298 -36.18445,-0.1247 -59.29493,-0.4761 -64.92844,-0.98727 -5.87465,-0.53305 -41.22462,-0.96732 -107.65337,-1.32251 -85.72393,-0.45835 -99.89303,-0.67392 -106.30763,-1.61735 -8.198904,-1.20584 -10.338304,-1.36712 -10.884904,-0.82053 -2.1818,2.18187 -3.6905,28.99814 -2.2845,40.6086 1.0994,9.07881 3.0314,19.33188 6.1872,32.83503 10.786804,46.15564 21.057204,93.28454 29.105004,133.55746 11.8128,59.11377 16.69282,80.69674 24.72131,109.33546 10.09349,36.00487 12.71937,41.63484 21.50223,46.10191 12.77159,6.49574 42.50455,8.49997 88.76022,5.98311 z M 295.428,830.84765 c -1.61743,-1.94886 -1.6022,-8.48975 0.0323,-13.87221 2.22701,-7.33364 3.03641,-8.6194 5.42602,-8.6194 1.1107,0 4.07348,-1.076 6.58394,-2.3911 3.21636,-1.68489 6.34082,-2.67801 10.57888,-3.36253 13.99826,-2.26095 17.69239,-3.59061 19.45721,-7.0034 1.45825,-2.81995 1.2987,-8.45233 -0.33504,-11.82719 -4.55812,-9.41582 -20.482,-17.26089 -37.08472,-18.2702 l -6.48329,-0.39414 -1.23901,1.89097 c -1.90192,2.9027 -1.5352,6.09378 1.3893,12.08933 1.91621,3.92842 2.7037,6.49129 2.91477,9.48605 l 0.28922,4.10339 -2.89991,1.16032 c -3.38853,1.35581 -6.37055,1.00598 -8.99027,-1.05469 l -1.79039,-1.40832 -4.29681,2.18095 c -2.83674,1.43985 -4.82822,2.04758 -5.86064,1.78846 -2.13956,-0.537 -4.45929,-2.81773 -4.9813,-4.89757 -0.89123,-3.55094 2.58972,-10.33995 5.82873,-11.36797 1.13692,-0.36085 1.31612,-1.04301 1.31612,-5.01023 0,-3.50644 -0.24404,-4.68616 -1.03195,-4.9885 -0.56757,-0.2178 -4.88212,-0.42155 -9.58787,-0.45279 -4.70577,-0.0312 -11.23501,-0.51223 -14.50944,-1.06889 -20.79347,-3.53491 -35.20487,-16.15 -41.77334,-36.56649 -3.65262,-11.35327 -4.83007,-22.05014 -3.79802,-34.50432 0.88728,-10.70737 1.56883,-13.5921 4.80621,-20.34293 7.49258,-15.62411 25.08343,-25.90409 44.32644,-25.90409 12.02869,0 21.13474,2.56143 31.3781,8.82633 11.59988,7.09455 17.19414,9.50721 24.02271,10.36038 8.01625,1.00157 14.28657,-1.89306 19.03474,-8.78718 l 2.57465,-3.73829 -1.2391,-2.30087 c -0.68151,-1.26548 -2.55495,-3.53418 -4.1632,-5.04156 l -2.9241,-2.74068 -4.93719,0.4474 -4.93718,0.44739 -2.13631,-3.22523 c -2.25207,-3.4 -2.84779,-7.39659 -1.32891,-8.91547 0.45311,-0.45311 2.625,-0.8074 4.94963,-0.8074 l 4.14223,0 0.4437,-4.77398 c 0.52285,-5.62567 1.21747,-7.1732 3.47397,-7.73954 4.56487,-1.14571 8.4476,1.45659 12.64727,8.47652 1.93389,3.23258 5.68311,6.72834 7.21618,6.72834 0.99402,0 2.14941,-9.67385 1.7144,-14.35436 -0.53027,-5.70554 -3.175,-13.83796 -5.87264,-18.05815 -3.01385,-4.71486 -3.40312,-4.91519 -6.93193,-3.56753 -3.85259,1.47131 -7.82624,0.93566 -12.91443,-1.74088 -3.67764,-1.93455 -3.79242,-1.95066 -5.73292,-0.80437 -1.08909,0.64334 -3.94686,3.51921 -6.3506,6.39083 -2.40375,2.87162 -4.79142,5.22112 -5.30594,5.22112 -1.36773,0 -3.33936,-2.78955 -5.09962,-7.21518 -3.121,-7.84677 -5.19018,-9.28797 -10.17146,-7.08449 -3.64801,1.61371 -6.30937,4.61497 -9.9655,11.23825 -5.26238,9.53308 -9.75542,12.49348 -15.77643,10.39484 -3.36229,-1.17192 -5.42946,-4.11283 -6.48445,-9.22522 -0.91488,-4.43339 -2.5836,-7.99577 -4.59945,-9.81886 -0.7795,-0.70496 -1.40648,-2.06745 -1.3933,-3.02776 0.0275,-1.99715 1.71927,-9.43261 2.27207,-9.9854 0.20227,-0.20227 4.39893,-1.92337 9.32591,-3.82466 9.94563,-3.83796 14.81204,-6.42746 16.27498,-8.66018 1.9501,-2.97623 3.03329,-10.00477 3.04347,-19.74816 l 0.01,-9.52207 2.1189,-0.73865 c 4.31856,-1.50545 9.92016,-0.49896 13.36765,2.40192 l 2.07167,1.7432 1.73939,-1.60085 c 0.95666,-0.88046 3.28865,-3.23525 5.18219,-5.23285 1.89353,-1.99762 4.61624,-4.49016 6.05045,-5.53899 2.50977,-1.83538 2.67708,-1.86595 4.45714,-0.81445 1.01721,0.60088 2.841,2.72852 4.05286,4.72807 3.16631,5.2244 4.6548,6.22975 8.21039,5.54544 1.58151,-0.30438 4.38934,-1.02029 6.23963,-1.59091 3.42969,-1.0577 8.79159,-1.37994 10.7103,-0.64366 0.58536,0.22462 1.06428,0.93312 1.06428,1.57445 0,1.19626 -2.23342,10.2728 -3.00885,12.22785 -0.36078,0.90959 0.36665,1.20906 4.386,1.80561 12.31737,1.82817 16.55943,7.78555 10.71894,15.05326 -1.10197,1.37126 -2.00358,2.66164 -2.00358,2.86751 0,0.20587 1.02418,1.81319 2.27594,3.57183 4.87783,6.85292 8.54823,16.12503 9.91343,25.0431 0.93142,6.0844 0.88952,6.05303 8.1039,6.06782 4.67757,0.01 11.95607,1.87329 13.51595,3.46084 0.49813,0.50697 1.91989,2.43564 3.15946,4.28593 3.50454,5.23118 5.37645,6.9422 8.86127,8.09967 7.01345,2.32949 12.293,12.58482 10.02173,19.46683 -0.71498,2.16641 -1.054,2.45985 -2.51845,2.1799 -2.91427,-0.5571 -6.04786,0.79571 -9.81206,4.23598 -6.67465,6.10025 -9.45013,5.90342 -14.12213,-1.00151 -0.99708,-1.47363 -1.81287,-3.33906 -1.81287,-4.1454 0,-1.35705 2.07029,-3.53119 5.12433,-5.3814 1.22762,-0.74372 1.21763,-0.86435 -0.31688,-3.82563 -1.57858,-3.0463 -4.58879,-5.17952 -7.26405,-5.14774 -2.51916,0.0299 -7.12916,2.7397 -11.09282,6.52039 -2.23931,2.13594 -4.34946,4.40294 -4.68921,5.03777 -0.33975,0.63484 -0.93455,5.17877 -1.32175,10.09762 -0.82891,10.52974 -1.96935,16.54734 -4.05469,21.39487 -1.95301,4.53987 -7.77723,9.43439 -16.26797,13.67115 -21.02214,10.48977 -46.0483,10.28115 -61.06748,-0.50906 -3.91367,-2.81169 -7.06015,-3.73785 -12.71536,-3.74275 -12.23375,-0.0106 -23.9616,6.26054 -28.33725,15.15255 -1.35557,2.75474 -1.64683,4.35809 -1.64683,9.06571 0,4.93336 0.26499,6.25875 1.92879,9.64717 3.44645,7.01889 12.42182,15.4839 21.01881,19.82365 6.42735,3.24452 11.19476,4.3732 17.04214,4.03469 6.67609,-0.38646 11.01922,-2.41385 17.51797,-8.17739 6.35064,-5.63221 8.68343,-6.77544 13.81265,-6.76926 6.80309,0.008 11.77458,3.67459 11.77458,8.68354 0,1.09041 -0.96641,2.77759 -2.58479,4.51259 -2.4285,2.60348 -2.86587,2.79515 -7.23296,3.1699 -4.07688,0.34985 -4.67326,0.57473 -4.8523,1.82974 -0.19623,1.37554 0.12906,1.44865 8.41042,1.89024 28.93618,1.54298 38.94209,5.75333 45.04798,18.95559 2.09246,4.52435 2.50264,6.20492 2.77391,11.36498 0.59805,11.37663 -3.25297,20.73124 -12.21453,29.67059 -6.52611,6.50993 -13.2899,10.50188 -20.54025,12.12272 -4.65297,1.0402 -5.33716,1.03901 -10.25486,-0.0178 -7.86484,-1.69007 -9.34277,-1.21464 -15.37345,4.94546 -6.69279,6.8364 -7.00076,7.05318 -8.11411,5.71169 z m 5.13161,-8.99644 c 4.79284,-5.3051 12.02359,-7.39475 17.56952,-5.07751 2.23857,0.93533 2.84117,0.9044 7.54776,-0.38744 2.81323,-0.77216 7.83995,-2.72108 11.17047,-4.33094 10.98989,-5.31214 17.60914,-12.18341 20.56682,-21.34988 2.05689,-6.37477 1.67565,-15.31534 -0.89079,-20.89013 -2.29037,-4.9751 -8.20727,-11.18008 -13.19716,-13.83966 -6.6333,-3.53551 -10.43378,-4.18432 -24.3417,-4.15553 -12.63597,0.0262 -19.47943,-0.96055 -19.47943,-2.80857 0,-0.86061 5.91778,-11.1385 6.68704,-11.61393 0.2772,-0.17132 1.65796,0.007 3.06835,0.39657 5.20798,1.43799 7.85874,-2.16548 3.53307,-4.80288 -4.67,-2.84736 -8.50265,-1.55752 -16.37351,5.51034 -2.92895,2.63015 -6.99063,5.55357 -9.02595,6.4965 -3.3307,1.54306 -4.474,1.70702 -11.43817,1.6404 -13.60795,-0.13019 -21.89561,-3.82186 -31.60341,-14.07749 -8.70776,-9.19914 -12.59768,-17.7815 -11.97715,-26.42528 0.40302,-5.61397 2.26605,-9.30711 7.16331,-14.19997 7.28032,-7.27379 17.90402,-11.10545 29.31187,-10.57192 l 6.76896,0.31658 8.42597,4.34995 c 11.70442,6.04246 17.52712,7.5962 28.24346,7.53653 6.78213,-0.0378 9.12686,-0.31633 12.111,-1.43888 2.03532,-0.76562 5.06161,-1.8986 6.72509,-2.51774 1.66347,-0.61913 5.75093,-2.53362 9.08325,-4.2544 13.20762,-6.82033 15.54867,-11.48553 17.10867,-34.09393 0.461,-6.68106 0.90377,-9.4908 1.52792,-9.69601 1.03104,-0.33898 3.54839,-2.91389 8.47029,-8.66398 2.72091,-3.17876 4.20552,-4.32786 6.33084,-4.90015 5.25408,-1.41478 9.99116,0.37081 14.80025,5.57878 3.69276,3.99905 4.72259,7.58136 2.955,10.27905 -0.59435,0.90709 -1.81184,1.83278 -2.70553,2.05709 -0.89369,0.2243 -1.79665,0.85542 -2.00658,1.4025 -0.40038,1.04336 1.38978,3.97299 2.77457,4.54063 1.43571,0.58852 3.54053,-1.88074 3.96159,-4.64751 0.22526,-1.48023 0.57047,-2.95334 0.76713,-3.27357 0.34503,-0.56183 3.13949,-0.35399 8.42441,0.62659 2.3305,0.43239 2.52313,0.34787 2.52313,-1.10723 0,-2.79921 -2.96696,-9.3601 -5.22431,-11.55263 -1.77404,-1.72309 -2.80945,-2.15772 -5.38267,-2.25947 -3.11634,-0.12323 -3.195,-0.18001 -3.5919,-2.59338 -0.49732,-3.02389 -2.20328,-5.40534 -5.91013,-8.25027 -4.02231,-3.08706 -8.50817,-4.22246 -16.68254,-4.22246 l -6.94263,0 -0.0117,-4.20521 c -0.026,-9.37825 -2.78309,-17.1084 -10.16746,-28.50747 -4.67634,-7.21875 -4.64589,-6.11875 -0.33961,-12.27013 3.38872,-4.84066 0.70952,-6.78337 -7.64776,-5.54546 -8.04978,1.19237 -8.74683,1.0915 -8.74683,-1.26575 0,-1.10239 0.75694,-4.25921 1.68208,-7.01517 0.92515,-2.75597 1.68209,-6.13403 1.68209,-7.50679 l 0,-2.49595 -2.90159,0.3977 c -1.59586,0.21874 -5.20391,1.31961 -8.01787,2.44638 -2.81396,1.12676 -5.52003,2.03554 -6.01347,2.01951 -0.49344,-0.016 -2.03605,-1.78205 -3.42803,-3.92449 -3.03103,-4.6652 -6.05981,-8.15736 -7.07491,-8.15736 -0.40642,0 -2.19606,1.70467 -3.97698,3.78816 -6.89881,8.07083 -8.4969,9.66851 -9.67096,9.66851 -0.6684,0 -2.73341,-0.94373 -4.58892,-2.09718 -1.94321,-1.20797 -4.67237,-2.24357 -6.43663,-2.44242 l -3.06297,-0.34524 -0.005,5.63838 c -0.007,7.43835 -1.04735,16.20612 -2.45436,20.67938 -0.99652,3.16817 -1.46986,3.75389 -3.87939,4.80034 -1.50942,0.65553 -5.74881,2.63161 -9.42088,4.39126 -3.67205,1.75966 -8.21368,3.73323 -10.0925,4.38572 -3.2282,1.1211 -3.48817,1.39034 -4.72814,4.89662 -1.10517,3.12509 -1.18053,3.9991 -0.4778,5.54143 0.78223,1.71679 1.03698,1.80714 4.07969,1.44677 4.93774,-0.5848 6.30947,1.71522 3.0929,5.18595 -2.09306,2.25844 -2.09943,3.12979 -0.0467,6.38151 1.74892,2.77046 3.81385,3.60463 6.48081,2.61805 2.05472,-0.76009 2.3756,-1.29455 3.99758,-6.65858 1.08969,-3.60371 1.96189,-5.02714 4.58204,-7.47799 3.73938,-3.49775 4.22957,-3.78365 13.05679,-7.61528 7.53923,-3.27255 6.60957,-3.70347 9.50425,4.40546 0.99077,2.77544 2.49005,5.90929 3.33175,6.96411 l 1.53037,1.91786 5.27148,-5.80644 c 2.89931,-3.19354 5.78811,-6.08293 6.41955,-6.42086 0.86863,-0.46488 2.36367,0.19456 6.14251,2.70941 2.74694,1.82811 5.31351,3.32461 5.70349,3.32554 0.38998,6.8e-4 1.72312,-1.04454 2.96253,-2.32329 1.23942,-1.27875 3.17369,-2.64578 4.2984,-3.03786 1.96031,-0.68337 2.2164,-0.5371 6.19,3.53541 7.03587,7.21099 10.38405,16.27156 10.37205,28.06796 -0.008,7.44334 -0.69308,10.91687 -3.14117,15.9165 -2.74598,5.60802 -3.11475,5.70319 -6.86471,1.77159 -1.79385,-1.88075 -4.32628,-3.75188 -5.68462,-4.20017 -2.18859,-0.72238 -2.44936,-1.05587 -2.44936,-3.13279 0,-4.81869 -2.56649,-8.33663 -6.08193,-8.33663 -1.55977,0 -1.56263,0.0798 -0.26912,7.51002 0.50182,2.88249 -0.24868,3.49373 -5.16447,4.20617 -1.70782,0.24751 -3.67585,0.89176 -4.37342,1.43167 -1.23879,0.9588 -1.237,1.00635 0.0774,2.04326 0.99675,0.78635 2.44187,0.99578 5.57344,0.80772 l 4.22778,-0.2539 5.31856,5.09473 c 2.92521,2.80209 5.64052,5.94155 6.03403,6.97656 2.66493,7.0093 -6.59362,14.91046 -21.82665,18.62665 l -4.70983,1.14899 -3.70059,-1.83495 c -4.31238,-2.1383 -10.24013,-4.19968 -15.47517,-5.3815 -2.67077,-0.60294 -4.44953,-1.5434 -6.39192,-3.37953 -9.1144,-8.61582 -27.35946,-10.99715 -45.97014,-6 -7.56176,2.03041 -10.00645,3.58743 -17.21311,10.96305 -7.26616,7.43652 -8.3799,9.35939 -10.6201,18.33577 -2.03034,8.1355 -2.20496,27.84709 -0.32417,36.59332 5.27964,24.55191 17.23192,36.05684 41.69235,40.13187 5.86227,0.97664 8.03359,1.02278 16.34293,0.34729 5.27036,-0.42844 10.05894,-0.96183 10.64129,-1.18529 1.78788,-0.68608 2.61765,2.75945 2.04155,8.47731 -1.35115,13.41031 -0.94112,12.14188 -4.32818,13.38922 -2.77331,1.02132 -3.02775,1.3066 -3.02775,3.39471 0,1.25383 0.33087,2.38999 0.73527,2.52478 0.40441,0.1348 2.28946,-0.82398 4.189,-2.13063 1.89954,-1.30666 3.89914,-2.37574 4.44357,-2.37574 0.54443,0 2.41348,0.75694 4.15343,1.68209 1.73996,0.92514 3.61481,1.68208 4.16633,1.68208 1.7171,0 0.48895,-6.12713 -2.51159,-12.53013 l -2.71704,-5.798 2.46422,-4.68943 c 3.174,-6.04011 3.77412,-6.27526 13.67223,-5.35712 10.09781,0.93666 17.10821,2.77869 24.55843,6.4529 10.79713,5.32481 16.56535,12.74495 16.60312,21.35797 0.025,5.70559 -1.59629,9.5832 -5.05431,12.08818 -3.36429,2.43708 -7.14638,3.54141 -18.07311,5.27716 -4.69854,0.74638 -10.16408,1.96365 -12.14564,2.70505 -3.47612,1.30058 -7.01581,4.27231 -8.42162,7.07035 -0.80771,1.60761 -1.80167,8.41041 -1.22884,8.41041 0.22072,0 1.47981,-1.19374 2.79798,-2.65283 z M 230.98084,681.28364 c -1.23565,-0.80246 0.66672,-4.53005 2.6299,-5.15315 1.96823,-0.62469 2.30331,-0.0173 1.58793,2.87854 -0.64095,2.59458 -2.32594,3.50326 -4.21783,2.27461 z m -7.1778,-1.44797 c -1.23224,-1.36161 -1.22265,-1.42065 0.51281,-3.15611 l 1.76854,-1.76854 0.43693,1.74085 c 0.94857,3.77943 -0.5698,5.55784 -2.71828,3.1838 z m 102.39113,-92.61759 c -0.83171,-0.83171 -0.45671,-2.76852 0.61572,-3.18004 2.31167,-0.88708 3.64555,-0.44738 3.64555,1.20169 0,1.96671 -2.91814,3.32148 -4.26127,1.97835 z M 317.5034,586.53 c -1.46223,-0.38212 -1.5154,-1.79347 -0.12015,-3.18872 1.22915,-1.22915 2.54417,-1.33774 4.36959,-0.36081 3.38304,1.81055 -0.0216,4.65439 -4.24944,3.54953 z m -7.23296,-17.87339 c -3.93376,-2.05403 -0.50161,-5.0471 5.91787,-5.16079 2.21436,-0.0392 3.27629,0.33497 4.54163,1.60031 2.6591,2.6591 2.19117,3.73117 -1.62856,3.73117 -1.80404,0 -4.15054,0.15921 -5.21446,0.35381 -1.06392,0.19459 -2.69134,-0.0414 -3.61648,-0.5245 z m -21.42133,-1.05343 c -0.49495,-0.33558 -0.79773,-1.32043 -0.67284,-2.18856 0.26084,-1.81311 2.00221,-2.47521 6.77439,-2.57576 2.88293,-0.0607 3.22411,0.0962 3.61767,1.66428 0.24341,0.9698 0.10548,2.06041 -0.31358,2.47947 -0.95108,0.95108 -8.21164,1.43013 -9.40564,0.62057 z M 183.9421,830.21997 c -2.9523,-2.11593 -3.82767,-4.87105 -3.84699,-12.10784 -0.01,-3.70059 0.39641,-9.2191 0.90286,-12.26335 l 0.92083,-5.53501 2.72637,2.33367 c 3.49992,2.9958 9.39135,5.24722 12.19054,4.65862 2.68816,-0.56524 5.59911,-3.31689 6.14677,-5.81037 0.29495,-1.34289 0.78265,-1.89473 1.54657,-1.74998 1.5405,0.29189 1.74908,3.03891 0.80703,10.62883 -0.63964,5.15349 -0.6214,6.90548 0.0941,9.04256 0.7968,2.37985 1.21593,2.7341 4.10259,3.46757 3.49176,0.8872 6.54096,2.59808 6.54096,3.67004 0,1.32023 -3.55452,1.98647 -10.64093,1.99434 -4.60999,0.007 -8.51677,0.39697 -10.88974,1.09228 -5.6646,1.65981 -8.8499,1.83367 -10.60097,0.57864 z m 10.94993,-4.4076 c 5.83257,-0.99801 7.315,-1.71048 6.67952,-3.21022 -0.26237,-0.61922 -0.66433,-3.03472 -0.89322,-5.36777 l -0.41618,-4.24191 -4.37342,-0.25664 c -2.40538,-0.14115 -5.4991,-0.73019 -6.87493,-1.30896 -3.64509,-1.53341 -3.8904,-1.38982 -3.8904,2.27711 0,4.46816 3.1494,14.50724 4.26156,13.58425 0.44539,-0.36965 2.92357,-1.03374 5.50707,-1.47586 z m 209.04314,3.1056 c -1.29063,-2.83263 -0.99621,-3.47344 2.00988,-4.37403 6.88059,-2.0615 9.47217,-6.28738 11.51777,-18.78112 0.7662,-4.67969 1.47646,-8.625 1.57835,-8.76735 0.10188,-0.14235 2.64425,1.74999 5.6497,4.20521 4.79262,3.91519 5.80861,4.46372 8.26374,4.46151 2.67646,-0.003 6.14188,-1.56188 8.32742,-3.74741 2.2835,-2.28351 3.3073,-0.40325 2.3107,4.24373 -0.3821,1.78168 -1.92861,5.88536 -3.43669,9.11931 -1.50809,3.23395 -3.25351,7.54118 -3.87873,9.57159 l -1.13676,3.69164 -5.41241,0.0296 c -5.56019,0.0303 -16.5068,0.86742 -21.92418,1.6769 -2.85107,0.42604 -3.10942,0.3373 -3.86879,-1.32931 z m 21.42213,-4.18092 6.69985,-1.11274 0.67319,-2.50004 c 0.37026,-1.37503 1.21408,-3.22082 1.87517,-4.10176 1.65238,-2.20192 2.9238,-5.2798 2.47857,-6.00019 -0.20783,-0.33626 -1.07069,-0.27732 -1.97555,0.13497 -2.14042,0.97524 -5.72753,0.23216 -8.73651,-1.80979 -1.34886,-0.91536 -2.67746,-1.66429 -2.95246,-1.66429 -0.27498,0 -0.54693,1.17741 -0.60432,2.61647 -0.14569,3.65365 -2.47071,8.24031 -6.17958,12.19078 l -3.15385,3.35925 2.58782,0 c 1.4233,0 5.60275,-0.50072 9.28767,-1.11266 z m 18.65446,-150.10668 c -1.51185,-1.72169 -2.05184,-4.01258 -1.56169,-6.6253 0.3805,-2.02827 0.58803,-2.21964 1.73902,-1.60365 1.81505,0.97139 3.33939,4.17494 3.33939,7.01808 0,1.8729 -0.26791,2.38833 -1.24138,2.38833 -0.68277,0 -1.70667,-0.52986 -2.27534,-1.17746 z m 7.27769,-10.68241 c -0.61228,-1.59555 0.81671,-2.94247 3.12173,-2.94247 1.5547,0 1.9159,0.2403 1.59971,1.06428 -0.22463,0.58536 -0.40841,1.49368 -0.40841,2.0185 0,1.37338 -3.77936,1.25043 -4.31303,-0.14031 z m -285.9025,-25.59453 c -1.32208,-1.32207 0.53613,-9.64395 2.15342,-9.64395 0.35867,0 1.16509,-0.19684 1.79205,-0.43743 0.98226,-0.37693 1.07638,-0.121 0.68049,1.8503 -1.36677,6.80569 -3.05228,9.80476 -4.62596,8.23108 z m -16.59656,-8.181 c 0,-1.71741 2.68331,-4.05176 5.2468,-4.56445 2.73756,-0.54751 2.8851,0.78416 0.41247,3.72271 -2.0449,2.43023 -5.65927,2.96781 -5.65927,0.84174 z m -22.82142,-59.60459 c -1.17038,-1.24586 -1.75208,-3.16354 -2.49988,-8.24221 -0.9084,-6.16934 -3.8776,-19.21081 -4.6632,-20.48197 -0.1914,-0.30966 0.1011,-1.43152 0.65,-2.49303 0.5506,-1.06461 1.0607,-4.0755 1.1378,-6.71487 0.098,-3.35283 0.4184,-4.8918 1.0708,-5.14216 0.5121,-0.19652 6.2951,-0.52705 12.85105,-0.73452 12.09219,-0.38267 19.57618,0.40348 20.13718,2.11527 0.13582,0.41442 -0.81547,2.07968 -2.11397,3.70059 -5.60302,6.99422 -5.86937,9.45508 -1.82161,16.83031 1.5307,2.78901 2.78308,5.57495 2.78308,6.19098 0,1.54288 -3.14698,1.46601 -10.38817,-0.25377 -3.62273,-0.8604 -6.65777,-1.21002 -8.12104,-0.93551 -2.6242,0.4923 -3.19721,1.83232 -4.00852,9.37409 -0.55466,5.15603 -1.57946,8.41042 -2.64842,8.41042 -0.46188,0 -1.52618,-0.73063 -2.3651,-1.62362 z m 6.05858,-20.60947 c 2.81427,-1.43574 6.42356,-1.67885 9.9423,-0.66969 2.13377,0.61196 2.2291,0.56716 1.78978,-0.84104 -1.15295,-3.6957 -1.15199,-8.54581 0.003,-12.21595 0.65184,-2.07234 1.0199,-3.93315 0.81791,-4.13512 -0.20198,-0.20198 -4.38047,-0.54573 -9.28554,-0.76387 -6.48424,-0.28839 -8.79155,-0.19155 -8.4539,0.35479 0.25543,0.41329 8e-5,3.63699 -0.56744,7.16379 -1.20876,7.51193 -1.31176,12.33135 -0.31925,14.94185 l 0.7126,1.87427 1.39071,-2.19648 c 0.76489,-1.20807 2.55159,-2.78871 3.97043,-3.51255 z m 390.26305,12.1121 c -0.78003,-1.27954 -1.42106,-2.6292 -1.4245,-2.99926 -0.0192,-2.06038 -1.66639,-6.10222 -3.05129,-7.48711 -2.53677,-2.53678 -4.98968,-2.11437 -8.31323,1.43161 -3.13034,3.33983 -5.25003,3.89876 -5.74128,1.51387 -0.17151,-0.83263 -0.60297,-4.9096 -0.95881,-9.05995 -0.76362,-8.90681 -2.29817,-12.42482 -6.32437,-14.49886 -2.32411,-1.19722 -2.52312,-1.52841 -2.52312,-4.19874 l 0,-2.899 6.47208,-0.48523 c 3.55965,-0.26687 9.08529,-0.28108 12.27922,-0.0316 6.55415,0.51202 22.49235,2.38626 22.78555,2.67946 0.44111,0.44111 -2.66225,16.67465 -4.24429,22.20172 -1.6314,5.6995 -4.40523,11.98583 -6.54915,14.84232 -0.95467,1.27198 -1.03724,1.23736 -2.40681,-1.00925 z m 5.31786,-15.61489 c 0.82824,-3.05298 1.65785,-8.15658 1.8436,-11.34133 l 0.33772,-5.79045 -3.95659,-0.4266 c -9.19845,-0.99179 -22.5117,-1.83276 -23.11466,-1.4601 -0.36508,0.22563 0.81834,3.20329 2.69329,6.77673 2.56626,4.89098 3.34451,7.07648 3.34451,9.3921 0,3.36339 0.54955,3.63615 4.46992,2.21852 2.62966,-0.9509 4.30595,-0.24184 8.58476,3.63129 1.5163,1.37254 3.10221,2.50795 3.52425,2.52312 0.42203,0.0152 1.44497,-2.4703 2.2732,-5.52328 z M 463.2273,841.2431 c 7.24353,-3.15458 13.48357,-7.74219 27.5538,-20.25768 8.01808,-7.13207 22.84946,-18.28537 40.51516,-30.46768 12.30995,-8.48898 16.75596,-13.84467 23.88633,-28.77363 5.10893,-10.69665 8.40631,-19.57989 13.33954,-35.93712 12.40432,-41.12934 23.10723,-84.40504 40.82095,-165.0537 3.94207,-17.94783 8.54332,-38.68793 10.225,-46.08909 1.68168,-7.40117 3.20813,-14.21361 3.39212,-15.13876 0.26617,-1.33843 7.26002,-31.15233 11.0873,-47.26378 0.4172,-1.75625 0.59364,-3.35808 0.3921,-3.55962 -0.87747,-0.87747 -44.78424,27.14216 -52.50964,33.50964 -7.26836,5.99078 -8.0511,8.96343 -7.96182,30.23726 l 0.0669,15.95125 -2.99619,8.96804 c -1.64791,4.93242 -5.13291,17.65593 -7.74444,28.27445 -8.51199,34.60977 -28.42592,95.62325 -43.75227,134.05074 -6.69611,16.78904 -8.77567,22.59472 -15.10935,42.18189 -9.35485,28.93033 -13.70984,38.86177 -30.39808,69.32199 -7.09841,12.95633 -16.41377,31.00392 -16.41377,31.80001 0,0.60461 0.67483,0.39348 5.60632,-1.75421 z m 57.71439,-360.98673 4.44777,-0.42017 0.39127,-5.79876 c 0.59045,-8.75043 3.38876,-15.75001 8.81159,-22.04093 1.32062,-1.53203 5.32733,-5.16328 8.9038,-8.06947 l 6.50268,-5.28397 5.78749,-0.40982 c 8.48078,-0.60053 8.58216,-0.65691 9.1348,-5.08009 0.31058,-2.48575 0.21226,-4.01254 -0.29077,-4.51557 -0.44787,-0.44787 -2.88954,-0.72935 -5.94528,-0.68539 -8.74633,0.12583 -18.27868,4.75759 -22.30672,10.83881 -1.12986,1.7058 -2.05431,3.3195 -2.05431,3.58599 0,0.2665 -0.70909,0.66251 -1.57574,0.88003 -0.86667,0.21751 -5.89826,4.68779 -11.18132,9.93393 -12.47696,12.38978 -14.21786,15.9279 -12.05791,24.50586 l 0.75271,2.98928 3.11608,-0.005 c 1.71385,-0.003 5.11759,-0.19386 7.56386,-0.42495 z m 22.80199,-0.47259 c 0,-0.49627 -0.45089,-2.38862 -1.00197,-4.20521 -0.55108,-1.81659 -1.00524,-4.00079 -1.00925,-4.85379 -0.006,-1.23131 -0.77382,-1.8899 -3.72705,-3.19596 -2.04588,-0.90478 -4.17279,-1.64506 -4.72649,-1.64506 -1.44386,0 -2.17302,2.42926 -2.70792,9.02158 l -0.46905,5.78076 6.82087,0 c 5.25517,0 6.82086,-0.20712 6.82086,-0.90232 z m 28.86804,-0.1684 c 0.14994,-0.14272 0.30133,-5.18306 0.33642,-11.20076 0.0575,-9.86615 -0.0788,-11.24974 -1.38714,-14.08049 -0.79801,-1.72656 -2.2362,-3.65373 -3.19596,-4.28259 -0.95976,-0.62886 -1.74502,-1.64674 -1.74502,-2.26195 0,-0.61522 -0.47133,-1.7915 -1.0474,-2.61395 -1.44782,-2.06706 -5.45737,-1.97312 -10.39684,0.24358 l -3.87492,1.73896 0.33679,5.494 c 0.21984,3.58602 -0.0409,7.49836 -0.75083,11.26552 -1.24596,6.61162 -1.38828,11.66818 -0.4076,14.48135 l 0.68003,1.95076 10.58993,-0.23747 c 5.82446,-0.13061 10.7126,-0.35424 10.86254,-0.49696 z m -69.71675,-4.55944 c -0.345,-4.56176 -0.22006,-5.24226 1.56577,-8.528 1.19515,-2.19897 5.44665,-7.07953 11.06706,-12.70456 11.57494,-11.58444 14.03121,-16.30852 12.13706,-23.34285 -1.72695,-6.41343 -5.87364,-9.73105 -13.84494,-11.07686 -5.23804,-0.88433 -13.15789,-0.0612 -17.98163,1.86887 -2.42136,0.96883 -2.56564,1.18246 -2.23632,3.31126 1.184,7.65379 0.93624,7.07409 2.56847,6.0095 5.74205,-3.74513 15.87727,-1.70668 17.87176,3.59447 1.97413,5.24703 0.89067,9.5824 -3.40024,13.60583 -2.8114,2.63615 -9.96358,6.13937 -15.70955,7.69474 -4.20164,1.13733 -4.58736,1.41579 -7.33201,5.29333 -1.59339,2.25106 -3.35989,5.00504 -3.92556,6.11994 -1.41086,2.7807 -2.84336,10.35551 -2.09533,11.07967 0.32994,0.31942 5.14153,0.86162 10.6924,1.20489 5.55088,0.34328 10.29624,0.66981 10.54525,0.72562 0.249,0.0558 0.28402,-2.12932 0.0778,-4.85585 z m -60.07632,2.16019 c 0,-1.04501 -1.25696,-5.15771 -2.79325,-9.13932 -2.29288,-5.94253 -2.85033,-8.30099 -3.11194,-13.16627 -0.21506,-3.99942 -0.56485,-5.83465 -1.07556,-5.64311 -0.41626,0.15613 -2.98321,0.85464 -5.70434,1.55226 -4.67414,1.19832 -5.04589,1.43576 -6.72833,4.29744 -1.67036,2.84114 -1.7951,3.64472 -2.01076,12.95334 l -0.22991,9.9243 5.27616,0.0836 c 2.9019,0.046 7.3956,0.27582 9.98601,0.51079 2.59041,0.23497 5.0883,0.44967 5.55087,0.47712 0.48607,0.0289 0.84105,-0.75204 0.84105,-1.85012 z m 34.597,-2.55015 c 0.58474,-2.57094 1.06317,-5.13394 1.06317,-5.69557 0,-1.72924 2.10691,-7.36019 3.477,-9.29267 1.28634,-1.81435 1.28582,-1.85121 -0.0516,-3.70058 -0.74299,-1.02739 -1.93641,-4.01496 -2.65204,-6.63905 -1.28055,-4.69559 -2.66972,-7.67635 -3.57752,-7.67635 -1.12377,0 -4.78459,5.44892 -6.77225,10.08012 -2.10694,4.90911 -2.17051,5.33706 -2.15069,14.4783 0.0123,5.66911 0.33515,10.15639 0.81087,11.26996 0.7358,1.72235 1.06702,1.85029 4.79018,1.85029 l 3.99972,0 1.06319,-4.67445 z m -105.61982,2.58771 c 7.37979,-0.37677 13.69618,-0.85708 14.03642,-1.06736 1.02752,-0.63505 3.60931,-7.01737 4.57632,-11.31289 1.13197,-5.02832 1.15519,-21.90818 0.0384,-27.92152 -0.44673,-2.40538 -1.29224,-6.41715 -1.87893,-8.91504 l -1.06671,-4.54163 -3.54351,0 c -6.37183,0 -13.13238,3.33692 -13.13238,6.48197 0,2.13304 0.75222,3.51802 5.06721,9.32962 1.92332,2.59041 3.84082,5.73903 4.26112,6.99694 1.08524,3.24805 0.9459,10.06008 -0.27933,13.65593 -1.46268,4.29272 -3.55738,6.04647 -7.69709,6.44424 -3.03035,0.29118 -4.10638,-0.0182 -9.85335,-2.83327 -3.54833,-1.73809 -7.25026,-3.4704 -8.2265,-3.84959 -3.38523,-1.31488 -9.5363,-1.83263 -13.76314,-1.15849 -10.78323,1.71982 -17.38447,7.86715 -16.28944,15.16936 0.78584,5.24037 0.52915,5.17567 18.49099,4.66085 8.71316,-0.24974 21.88011,-0.76234 29.2599,-1.13912 z m 44.75185,0.42349 c 0.29035,-0.17945 0.27778,-1.61958 -0.0279,-3.2003 -2.88735,-14.92942 5.44629,-29.45096 16.90137,-29.45096 2.36444,0 2.65791,-0.22469 4.05037,-3.10113 1.37625,-2.84295 1.45451,-3.61317 0.94,-9.25146 -0.30868,-3.38268 -0.57876,-7.73996 -0.60018,-9.68284 -0.0342,-3.09954 -0.20791,-3.5325 -1.41761,-3.53238 -0.75827,8e-5 -2.70617,0.83924 -4.32865,1.8648 l -2.94997,1.86466 0.16818,4.12099 c 0.42283,10.3602 -3.28238,15.39639 -17.48296,23.76315 -12.54485,7.39122 -15.67958,12.30162 -14.00222,21.93373 l 0.73752,4.23515 3.8068,0.41849 c 2.09375,0.23017 4.26097,0.53377 4.81606,0.67466 1.23655,0.31386 8.65883,-0.20517 9.38921,-0.65656 z m 44.53715,-1.3645 c -0.1302,-1.11017 -0.84784,-3.53237 -1.59474,-5.38267 -3.5274,-8.73839 -3.84363,-10.07957 -3.86564,-16.39483 -0.0134,-3.83243 0.66466,-10.2927 1.73008,-16.48442 3.0249,-17.57937 1.696,-24.89659 -5.15176,-28.36661 -2.06447,-1.04615 -3.19747,-2.00478 -2.91315,-2.46482 0.28853,-0.46684 0.16001,-0.56417 -0.33831,-0.25619 -0.44198,0.27315 -2.90599,0.14203 -5.47558,-0.29139 -3.9381,-0.66424 -5.35609,-0.61646 -9.02709,0.30419 -4.9552,1.24272 -11.46357,3.96819 -12.15761,5.09116 -0.25649,0.41501 -0.95634,0.56652 -1.55523,0.3367 -0.59889,-0.22981 -0.8987,-0.22765 -0.66624,0.005 0.23246,0.23246 -1.30241,1.98942 -3.41083,3.90436 -2.10842,1.91493 -4.87942,4.76772 -6.15777,6.33954 -2.1731,2.67196 -2.31132,3.13148 -2.12505,7.06475 0.17859,3.77121 -1.11045,10.19472 -3.59376,17.90839 -0.46361,1.44008 -0.35955,1.54529 1.10035,1.11258 4.10385,-1.21636 8.8475,-3.84163 11.71123,-6.48133 4.75136,-4.37964 5.91782,-7.15311 6.25487,-14.87205 0.28524,-6.53244 0.28798,-6.54118 2.59923,-8.30405 1.27252,-0.9706 4.12444,-2.50051 6.3376,-3.39979 l 4.02392,-1.63508 2.9058,1.70292 c 5.19573,3.0449 5.4314,3.55895 5.3481,11.66566 -0.0406,3.95037 -0.41964,9.60469 -0.84234,12.56516 -2.91323,20.40367 -2.05709,28.4684 3.73758,35.20748 2.16182,2.51414 4.96955,3.42909 9.99891,3.25828 3.32127,-0.11279 3.36115,-0.13999 3.12743,-2.13275 z m -232.33519,0.43271 c 1.45667,-0.40939 1.35623,-0.54843 -1.34567,-1.86286 -6.99569,-3.4033 -12.63718,-10.59695 -16.1949,-20.65064 -2.04778,-5.78679 -4.555,-18.80707 -4.555,-23.65464 0,-4.31197 -0.71232,-7.082 -1.82116,-7.082 -0.99152,0 -5.44116,3.29279 -9.4488,6.99226 -1.20269,1.1102 -2.18988,1.73208 -2.19375,1.38194 -0.0173,-1.56151 -5.39641,10.41392 -5.76079,12.82509 -0.40283,2.66566 -0.37218,2.71352 2.6919,4.20216 4.42298,2.14885 8.82024,6.45922 11.79753,11.56439 2.30885,3.95897 4.9555,10.88941 5.53965,14.50593 0.18812,1.16469 0.89513,1.39722 5.25726,1.72907 7.15691,0.54446 14.1949,0.5661 16.03373,0.0493 z m 32.28932,-2.09884 c 0.14516,-1.52376 -0.42054,-3.67183 -1.63759,-6.2182 -1.7887,-3.74239 -1.95779,-3.89025 -4.44861,-3.89025 -3.85248,0 -6.76066,1.49381 -12.28073,6.30813 -2.73446,2.38486 -5.67456,4.59042 -6.53356,4.90127 -1.24392,0.45015 17.78445,1.46451 23.66945,1.26177 0.65093,-0.0224 1.08799,-0.86127 1.23104,-2.36272 z m 30.17769,2.14933 c 1.21917,-0.77533 -0.97674,-7.9648 -2.79701,-9.15749 -0.79621,-0.52169 -3.79283,-1.78109 -6.65917,-2.79866 l -5.21152,-1.85013 -6.00294,-8.88448 c -3.30162,-4.88647 -7.40059,-10.17279 -9.10883,-11.74739 -3.08063,-2.83962 -3.14071,-2.86068 -7.3888,-2.59018 -6.07949,0.38711 -8.41612,2.40665 -12.74338,11.01407 -4.32177,8.59651 -5.56962,10.39231 -7.2213,10.39231 -2.10039,0 -6.22042,-4.656 -7.73994,-8.74684 -1.3398,-3.60696 -1.77305,-5.96093 -3.88776,-21.12291 -0.56228,-4.03141 -1.60573,-8.64873 -2.31879,-10.26072 -1.28063,-2.89507 -1.33753,-2.93088 -4.65725,-2.93088 l -3.36076,0 -0.47392,3.16029 c -0.6901,4.60192 0.19638,17.76627 1.66749,24.7623 3.32668,15.82046 9.23197,23.77685 18.12477,24.4201 4.78561,0.34616 6.36502,-0.40539 11.86738,-5.64703 2.21014,-2.10541 5.00109,-4.2386 6.20211,-4.74042 2.86344,-1.19642 7.19631,-1.16065 9.59394,0.0792 3.13376,1.62052 6.66725,6.35801 8.6264,11.56574 l 1.83664,4.88205 6.39192,0.22273 c 3.51555,0.12251 8.20857,0.28147 10.42892,0.35326 2.22035,0.0718 4.39466,-0.0969 4.8318,-0.37494 z m 27.72953,-0.0886 c 2.09336,-1.32553 -1.48129,-9.68468 -5.48989,-12.83785 -2.27189,-1.78707 -7.98898,-4.28113 -12.17589,-5.31169 -2.7756,-0.68319 -4.10021,-1.66035 -8.74684,-6.45258 -6.44401,-6.64592 -9.44363,-7.97342 -13.58072,-6.01025 -3.33212,1.5812 -3.81677,2.83079 -2.35996,6.08468 1.35048,3.01642 4.277,5.55661 12.98248,11.26869 6.1108,4.00959 8.7706,7.23691 9.66984,11.73312 l 0.42811,2.14054 9.16736,-0.0103 c 5.04204,-0.005 9.58952,-0.27763 10.10551,-0.60436 z m -182.2668,-1.05326 c 0,-0.17723 -0.78912,-2.67513 -1.7536,-5.55087 -1.99614,-5.9518 -3.49519,-9.11311 -4.17316,-8.80067 -0.25584,0.1179 -3.03875,1.46011 -6.18423,2.98268 -3.1455,1.52257 -8.8327,4.22083 -12.6381,5.99613 -3.8055,1.77531 -6.6818,3.45894 -6.3919,3.74141 1.0432,1.01647 31.14099,2.59314 31.14099,1.63132 z m 19.51218,-1.16174 c 0,-0.26111 -0.73609,-1.55943 -1.63576,-2.88516 -3.36846,-4.96372 -5.03441,-12.13626 -6.79064,-29.23646 -0.58706,-5.71607 -1.50929,-12.52851 -2.04941,-15.13875 -1.8438,-8.91062 -6.6095,-16.23648 -12.54018,-19.27685 l -2.49457,-1.27885 -2.40563,1.6325 c -1.32309,0.89788 -2.77238,1.75477 -3.22078,1.90422 -1.1362,0.37874 1.6553,4.44284 7.20694,10.49236 2.48165,2.7042 5.13361,6.33055 5.89326,8.05856 1.94917,4.43384 2.21749,11.01513 0.91532,22.45108 -1.44608,12.69972 -0.6107,18.08275 3.47719,22.40643 1.09281,1.15583 2.14494,1.34567 7.45828,1.34567 3.40229,0 6.18599,-0.21364 6.18598,-0.47475 z m 36.33239,0.064 c 10e-4,-0.72979 -3.44042,-5.585 -5.47015,-7.71719 -4.00112,-4.2031 -5.97846,-12.95377 -4.62757,-20.47926 1.43986,-8.02115 5.36828,-14.82654 12.22086,-21.17083 5.30657,-4.91295 15.58519,-10.03621 22.49249,-11.21113 l 4.76644,-0.81076 5.92759,2.97736 c 6.55746,3.29373 9.22192,5.91641 7.77809,7.65612 -1.06743,1.28618 -3.19152,1.29839 -5.40845,0.0311 -2.95714,-1.69044 -3.36417,-1.32892 -3.36417,2.98804 0,2.19851 0.248,4.15058 0.55113,4.33792 0.30312,0.18733 2.34685,-0.8953 4.54163,-2.40586 5.59947,-3.85385 14.07394,-7.73854 19.53805,-8.95623 2.55059,-0.56841 5.31869,-1.18537 6.15132,-1.37103 2.04315,-0.45557 1.92261,-1.97037 -0.5506,-6.91972 -4.38352,-8.77217 -14.53159,-14.12171 -29.43593,-15.51708 -8.31128,-0.77811 -14.55698,0.16111 -24.42797,3.67344 -17.69649,6.29683 -38.36663,20.72729 -43.47645,30.35226 -1.14191,2.15092 -2.70414,6.56755 -3.47163,9.81473 -0.76748,3.24718 -1.87059,6.82283 -2.45135,7.94589 -0.99187,1.91807 -0.94627,2.41703 0.7517,8.22555 2.96505,10.143 6.19447,15.43122 10.96548,17.95613 2.18313,1.15535 3.7419,1.27732 14.72028,1.15175 6.75324,-0.0772 12.27888,-0.32526 12.27921,-0.55117 z m 391.41465,-2.81545 c 2.50168,-1.58937 5.911,-3.67731 7.57626,-4.63986 3.33005,-1.92482 9.41967,-7.32526 9.41967,-8.35361 0,-0.40167 -2.00829,-0.47785 -5.25116,-0.19916 -5.56868,0.47855 -9.39641,2.01621 -14.76564,5.93158 -2.81417,2.05216 -2.85954,2.14923 -2.85954,6.11803 0,2.21803 0.29968,4.03278 0.66595,4.03278 0.36628,0 2.71278,-1.30039 5.21446,-2.88976 z m -384.6857,-3.03507 c 0,-1.39706 -2.87202,-8.69015 -3.89567,-9.89252 -2.07425,-2.43639 -5.00317,-4.36763 -6.62399,-4.36763 -1.78253,0 -1.90237,0.42883 -0.8809,3.15216 1.19473,3.18528 4.14558,6.99033 7.27288,9.3782 2.97109,2.2686 4.12768,2.75329 4.12768,1.72979 z m 345.07991,-6.01794 c 0.67208,-1.65282 2.1022,-8.22177 2.1022,-9.65604 0,-0.30653 -0.60282,-0.87994 -1.33959,-1.27425 -2.05033,-1.09731 -4.83672,0.7079 -7.66151,4.96361 -1.34038,2.01938 -2.43707,3.85328 -2.43707,4.07532 0,0.46029 6.66936,3.6027 7.82417,3.68653 0.41767,0.0303 1.09798,-0.77751 1.5118,-1.79517 z m -220.76054,-0.40703 c 4.04611,-2.55445 10.31312,-9.75394 15.2998,-17.57631 l 4.64074,-7.2797 -2.26852,-1.89384 c -2.43397,-2.03197 -7.29983,-3.96167 -9.9896,-3.96167 -6.47417,0 -13.04194,5.53473 -18.06636,15.22469 -4.9028,9.45541 -4.87813,9.25263 -1.29219,10.62211 1.65026,0.63025 4.3061,2.32673 5.90185,3.76996 1.59575,1.44324 2.98308,2.63648 3.08294,2.65166 0.0999,0.0152 1.31097,-0.68543 2.69134,-1.5569 z m 260.67112,-4.60274 c 2.7985,-1.36076 13.0936,-3.89986 15.87616,-3.91557 3.13675,-0.0177 3.72604,-0.83051 3.36047,-4.635 -0.37011,-3.85183 -1.75025,-5.82678 -5.047,-7.22215 -2.61899,-1.1085 -8.95333,-1.1872 -13.6956,-0.17017 -3.77145,0.80883 -10.35939,3.51474 -10.97253,4.50682 -0.20901,0.33818 0.20814,2.09527 0.927,3.90463 0.71886,1.80936 1.78596,5.0553 2.37134,7.2132 l 1.06433,3.92345 1.81561,-1.19854 c 0.99858,-0.6592 2.93368,-1.7422 4.30022,-2.40667 z m -211.80784,0.41312 c 0.77448,-2.01826 0.40561,-9.28634 -0.66495,-13.10178 l -1.07336,-3.82542 -3.66821,-0.37859 c -7.34079,-0.75763 -11.38604,-4.68081 -15.03726,-14.58346 -2.60692,-7.07035 -4.88332,-11.44314 -6.97044,-13.38972 -1.64807,-1.53709 -2.01342,-1.58662 -9.31807,-1.26326 -8.87778,0.39301 -14.64671,2.10773 -22.21189,6.60213 -4.57743,2.7194 -13.31344,10.63195 -13.31344,12.05852 0,0.37605 1.00621,2.12262 2.23602,3.88125 1.22981,1.75864 3.08776,5.16556 4.12877,7.57094 1.04102,2.40538 1.98372,4.48044 2.09489,4.61125 0.11117,0.1308 1.42788,-2.20005 2.92601,-5.17969 4.68275,-9.31353 8.39995,-12.39562 15.98491,-13.25376 2.9025,-0.32838 5.11762,-0.15132 7.77629,0.62157 6.15407,1.78905 9.65205,4.74111 16.6613,14.06107 9.07321,12.06435 11.52068,14.39367 16.81648,16.00457 2.59221,0.78852 3.19075,0.71675 3.63295,-0.43562 z m 93.85226,-10.5421 c 3.79413,-7.76166 5.14757,-11.17163 4.66533,-11.75424 -0.37362,-0.45139 -2.23735,-1.5612 -4.14161,-2.46625 l -3.4623,-1.64557 -1.82284,8.52176 c -1.79255,8.3802 -2.26344,13.77649 -1.46282,16.76397 0.22313,0.83263 0.51232,1.51387 0.64265,1.51387 0.13032,0 2.64204,-4.92009 5.58159,-10.93354 z m -111.62764,6.22371 c -0.0262,-0.51335 -4.15744,-6.86505 -5.89496,-9.06334 l -1.53882,-1.94691 -3.98989,3.94824 c -2.19443,2.17154 -4.27279,4.75982 -4.61858,5.75174 l -0.62869,1.80349 8.34404,-0.0784 c 4.58923,-0.0431 8.33634,-0.22979 8.3269,-0.41482 z M 236.5308,448.59962 c 3.34258,-9.94162 7.46341,-13.32976 16.21237,-13.32976 5.80037,0 10.63913,2.14702 16.1124,7.14928 l 3.66531,3.34988 1.12811,-2.18153 c 1.84705,-3.57181 3.58798,-4.66892 6.68035,-4.20988 4.4047,0.65384 7.85843,2.51551 13.15682,7.09193 6.40279,5.53034 8.7253,7.30324 9.5673,7.30324 1.54371,0 -0.0558,-8.22827 -2.60174,-13.38391 -4.59789,-9.31097 -13.65935,-16.29338 -23.71125,-18.27097 -5.67084,-1.11567 -17.81548,-0.46597 -24.67013,1.31976 -19.38841,5.05097 -27.80976,16.18363 -20.43139,27.00942 1.24568,1.8277 2.4646,3.32368 2.70871,3.3244 0.2441,6.7e-4 1.22651,-2.32662 2.18314,-5.17186 z m 165.39339,-6.26501 c 2.08997,-4.87083 2.16596,-5.37371 2.18588,-14.46592 0.0114,-5.18082 -0.24561,-13.35575 -0.57103,-18.16651 -0.51147,-7.56115 -0.42815,-9.33967 0.61466,-13.12025 1.34672,-4.88234 3.37249,-8.29354 4.5701,-7.6956 0.43427,0.21682 0.26443,-0.0367 -0.37742,-0.56325 -0.64185,-0.5266 -1.04578,-1.07891 -0.89762,-1.22735 0.37089,-0.3716 -2.68184,-0.77702 -6.49447,-0.86251 -4.00627,-0.0898 -4.72908,0.63107 -7.01274,6.99413 -2.72396,7.58992 -2.94479,18.63001 -0.69292,34.64134 0.93683,6.66105 1.91396,15.08649 2.17142,18.72319 l 0.46808,6.61219 1.93542,-2.9116 c 1.06448,-1.60139 2.90977,-5.18242 4.10064,-7.95786 z m 90.27218,8.68341 c 2.44693,-1.14505 4.44896,-2.21682 4.44896,-2.38171 0,-0.16489 -0.58602,-1.44851 -1.30227,-2.85247 -0.71625,-1.40396 -2.8533,-7.67448 -4.749,-13.93449 -4.14221,-13.67845 -6.37345,-18.70278 -10.102,-22.74779 -4.08536,-4.43209 -8.58827,-5.97096 -16.61925,-5.67963 -5.24998,0.19045 -6.34463,0.42874 -7.17204,1.56127 -0.8962,1.2267 -0.75633,1.57531 1.7022,4.2425 3.89642,4.22711 5.93179,9.01676 5.93978,13.97755 l 0.007,4.0814 3.67288,1.52232 c 5.56041,2.30466 10.92516,8.41215 15.13816,17.234 1.85411,3.88243 3.64469,7.05898 3.97908,7.05898 0.33439,0 2.61001,-0.93687 5.05694,-2.08193 z m 120.0788,-0.0205 c 2.59233,-1.90642 2.81702,-2.29852 2.40977,-4.20521 -0.79869,-3.73933 -3.14924,-5.00991 -5.04421,-2.72661 -0.84224,1.01482 -1.37165,9.03182 -0.59654,9.03349 0.20465,4.3e-4 1.65858,-0.94531 3.23098,-2.10167 z m -105.34332,-5.97974 c 2.29578,-1.80585 2.87863,-4.70391 1.4872,-7.39465 -1.17987,-2.2816 -4.45716,-4.06316 -6.49443,-3.5304 -1.46676,0.38357 -4.60646,3.91081 -4.60646,5.17506 0,1.30953 2.6467,4.40472 4.98658,5.83157 2.56998,1.56716 2.53019,1.56787 4.62711,-0.0816 z m 121.34844,-7.04699 c -0.2345,-0.77093 -3.09954,-1.31627 -14.20541,-2.70389 -9.60935,-1.20063 -18.236,-1.28911 -23.45705,-0.24058 -5.84981,1.17482 -4.65924,2.08901 2.07449,1.5929 5.03633,-0.37104 6.24203,-0.24802 8.34151,0.85109 2.10408,1.1015 2.68005,1.15958 4.03701,0.40707 2.37019,-1.31442 7.2984,-1.12766 9.75394,0.36964 1.1636,0.70953 2.95226,2.33855 3.97479,3.62005 l 1.85915,2.32999 3.91165,-2.78151 c 2.15141,-1.52984 3.82088,-3.07998 3.70992,-3.44476 z m -51.27691,1.56522 c 1.61492,-1.23621 2.83104,-2.42097 2.70248,-2.63281 -0.12857,-0.21184 -2.08983,-0.16632 -4.35836,0.10117 -4.44043,0.52357 -7.61922,2.583 -6.896,4.46769 0.63766,1.66171 5.20172,0.62845 8.55188,-1.93605 z m -210.61546,-6.45288 c -0.60028,-1.38772 -1.25104,-3.0753 -1.44613,-3.75016 -0.48856,-1.69006 4.83278,-7.0161 7.94005,-7.94707 l 2.40744,-0.72128 0.0429,-5.14481 c 0.0236,-2.82965 0.57235,-9.8178 1.21938,-15.52924 1.33126,-11.75123 1.10653,-19.3278 -0.74779,-25.21039 -1.05345,-3.34192 -1.77399,-4.351 -4.66605,-6.53452 -10.89026,-8.22223 -25.19591,-10.33715 -32.52007,-4.80771 -2.1521,1.62474 -5.33072,7.26794 -4.53946,8.05918 0.20408,0.20409 1.36478,-0.048 2.57934,-0.5601 1.6236,-0.68462 4.95758,-0.88882 12.59216,-0.77127 10.32406,0.15897 10.39511,0.17059 12.33285,2.01805 2.98478,2.84575 7.77347,10.3969 9.36162,14.76211 1.04641,2.87616 1.44342,5.61528 1.49419,10.30882 0.0636,5.88215 -0.10417,6.75783 -2.10394,10.97997 -1.9877,4.19665 -6.84362,11.49783 -11.4299,17.18557 l -1.8235,2.26145 1.40261,2.44839 c 1.65137,2.8826 5.15798,5.47613 7.40406,5.47613 1.58467,0 1.58686,-0.011 0.50019,-2.52312 z m 171.4364,-3.4532 c 3.01262,-1.53323 3.00007,-2.42422 -0.047,-3.33715 -3.81246,-1.14224 -4.51556,-0.6509 -4.22877,2.95512 0.201,2.52721 0.40273,2.90991 1.1896,2.25686 0.52116,-0.43252 1.90994,-1.2762 3.08619,-1.87483 z m -238.01301,-5.96773 3.93803,-4.20647 -1.54158,-6.55887 c -1.6927,-7.20181 -3.13039,-10.56802 -5.38407,-12.60625 l -1.47894,-1.33756 -2.62996,3.01964 c -5.20595,5.9773 -9.35769,13.41032 -9.35769,16.7534 0,0.80134 0.6491,1.42203 1.78537,1.70721 2.13984,0.53707 6.67067,3.59038 8.92655,6.01557 0.89577,0.963 1.66817,1.67641 1.71645,1.58536 0.0483,-0.0911 1.85992,-2.05847 4.02584,-4.37203 z m 287.59534,1.324 c 2.30272,-1.20706 4.51865,-1.98954 4.92428,-1.73884 0.44851,0.27719 0.54531,0.14481 0.24702,-0.33783 -0.30367,-0.49135 1.45963,-2.61485 4.62926,-5.57493 9.92732,-9.27102 11.9373,-16.27451 6.52972,-22.75191 l -1.94439,-2.32906 -1.18563,2.33235 c -2.11513,4.16086 -5.87164,8.1716 -10.38904,11.09217 -5.23968,3.38752 -7.34453,4.32869 -17.45125,7.80314 -4.20557,1.44578 -7.92927,2.80345 -8.27488,3.01706 -1.11163,0.68702 0.76724,2.17381 4.17916,3.30707 l 3.29299,1.09376 -0.39953,2.91489 c -0.48028,3.50398 -0.11532,3.68928 6.88796,3.4974 3.9242,-0.10752 5.50817,-0.51885 8.95433,-2.32527 z m -388.82658,0.27352 c 0,-0.13972 -0.52986,-0.66957 -1.17746,-1.17746 -1.06715,-0.83692 -1.09095,-0.81312 -0.25404,0.25403 0.87897,1.12077 1.4315,1.47719 1.4315,0.92343 z m 347.44654,-4.17442 c 0.98941,-2.57834 0.14109,-6.02748 -2.01201,-8.18058 -1.53601,-1.53602 -7.24315,-4.04772 -10.96624,-4.82623 -1.9968,-0.41753 -3.71727,-0.67243 -3.82327,-0.56645 -0.10598,0.10599 0.6017,2.79923 1.57264,5.98498 l 1.76534,5.79228 3.74001,1.38557 c 4.64341,1.72026 9.14794,1.91039 9.72353,0.41043 z m -185.8409,-3.50079 c 8.91628,-9.86926 10.10204,-29.52008 2.24104,-37.13926 -1.29056,-1.25085 -2.43866,-2.14359 -2.55134,-1.98386 -0.11267,0.15974 -0.94984,1.93218 -1.86037,3.93877 -1.07877,2.37735 -3.95129,6.09027 -8.24558,10.65794 -6.24928,6.64711 -9.89435,11.41055 -9.89435,12.93011 0,0.37741 0.61762,0.6862 1.37248,0.6862 4.05116,0 10.52806,5.76909 12.909,11.49828 1.56631,3.76896 2.14359,3.71264 6.02912,-0.58818 z m 197.2733,2.62696 c 0.97138,-0.38143 1.33137,-1.35384 1.5393,-4.15792 0.38387,-5.17695 2.54361,-11.29112 5.73501,-16.23561 3.07428,-4.76305 9.71863,-11.46018 13.89102,-14.00137 2.38567,-1.45299 2.76228,-2.00282 2.76514,-4.037 0.004,-3.06409 -1.95988,-7.24089 -4.54833,-9.67181 -2.7343,-2.56791 -4.42689,-2.0935 -9.21735,2.58349 -6.06789,5.92416 -9.04607,13.86061 -12.12803,32.31958 -0.92678,5.55087 -1.85478,10.92513 -2.0622,11.94279 -0.32717,1.60514 -0.16947,1.84403 1.19019,1.803 0.86204,-0.026 2.1379,-0.27132 2.83525,-0.54515 z m -29.74052,-2.16143 c -0.44607,-3.38214 -4.23221,-9.95719 -9.84373,-17.09471 -3.20034,-4.07065 -6.7883,-9.36285 -7.97324,-11.76044 -1.85355,-3.75047 -2.15249,-5.06599 -2.14052,-9.41967 0.0103,-3.73444 0.39481,-5.89279 1.46754,-8.23714 l 1.45362,-3.17674 -2.88058,0.39483 c -1.64697,0.22574 -3.48797,0.0698 -4.29884,-0.3642 -1.30283,-0.69724 -1.48203,-0.52557 -2.20168,2.10908 -1.10202,4.03448 -0.94244,10.85876 0.37241,15.92511 0.61523,2.37059 2.87243,8.72887 5.01601,14.1295 2.14357,5.40064 4.08431,10.60202 4.31275,11.55862 0.31215,1.30712 1.08882,1.94106 3.12581,2.55135 1.49076,0.44665 4.89871,1.86077 7.57323,3.1425 2.67452,1.28173 5.17058,2.2249 5.54679,2.09593 0.37622,-0.12896 0.58791,-0.96327 0.47043,-1.85402 z m -360.29765,-3.06195 c -0.5942,-0.5942 -3.82812,2.39655 -3.82812,3.54026 0,0.46973 0.96691,-0.0291 2.14869,-1.10848 1.18178,-1.07939 1.93753,-2.17369 1.67943,-2.43178 z m 251.37988,-7.5948 c -0.2712,-2.16252 -3.34792,-12.54963 -4.16108,-14.04793 -1.11439,-2.05336 -2.70617,-1.65325 -4.5994,1.15612 -2.47292,3.66957 -3.08479,7.10578 -2.64678,14.86427 0.62856,11.13386 0.3954,10.96746 6.39796,4.56609 2.8279,-3.01579 5.08208,-5.95813 5.0093,-6.53855 z m -32.60628,5.37549 c 0.38617,-1.31658 0.89614,-4.36182 1.13325,-6.7672 0.23712,-2.40538 0.8967,-5.84894 1.46575,-7.65237 0.85301,-2.70334 0.89176,-3.75582 0.22073,-5.9955 -0.69024,-2.30382 -0.65948,-2.80297 0.20248,-3.28534 0.559,-0.31284 1.70982,-1.70232 2.55737,-3.08776 0.84755,-1.38542 1.94405,-2.9323 2.43665,-3.4375 2.35224,-2.41231 15.31687,-2.96377 13.84923,-0.58908 -0.25299,0.40934 -0.11389,0.50689 0.33086,0.23203 1.40219,-0.86661 6.69722,2.90861 8.697,6.20073 2.91413,4.79737 4.32149,8.12739 3.79494,8.97936 -0.26151,0.42314 -0.18276,0.58843 0.17502,0.36731 0.35777,-0.22111 1.21767,1.2666 1.9109,3.30604 1.09502,3.2215 1.44267,3.64981 2.64942,3.26418 6.28153,-2.00734 8.24238,-2.24787 16.16151,-1.98249 9.7083,0.32533 10.45877,-0.009 10.45877,-4.65597 0,-2.37694 -1.64856,-9.62662 -2.36138,-10.38439 -0.1127,-0.1198 -1.12633,0.25867 -2.25252,0.84104 -1.13016,0.58443 -3.69567,1.05887 -5.72583,1.05887 -4.20478,0 -10.22451,-2.20623 -9.44798,-3.46268 0.30704,-0.4968 0.18924,-0.60041 -0.32282,-0.28394 -0.44344,0.27406 -1.2509,0.12928 -1.79434,-0.32173 -0.80536,-0.66839 -0.83101,-1.02125 -0.13873,-1.90822 0.75637,-0.96908 0.71927,-0.98611 -0.33905,-0.15568 -1.06471,0.83545 -1.57902,0.54187 -4.9417,-2.82081 -2.34679,-2.3468 -3.56442,-4.05892 -3.24927,-4.56883 0.27721,-0.44854 0.22913,-0.64564 -0.10685,-0.43799 -0.33598,0.20765 -2.71008,-1.41023 -5.27579,-3.59527 -11.28177,-9.60796 -21.65026,-8.81276 -27.1206,2.07998 -3.98862,7.94228 -6.24179,21.47244 -6.21004,37.29091 0.0149,7.42613 0.0195,7.4467 1.27792,5.8093 0.69463,-0.90377 1.57892,-2.72042 1.9651,-4.037 z m -107.09562,3.49351 c 1.98789,-5.71833 4.92948,-11.69712 7.99608,-16.25205 2.01485,-2.99274 3.66336,-5.60287 3.66336,-5.8003 0,-0.6648 -5.52216,-7.37837 -6.5586,-7.97362 -1.54547,-0.88761 -9.74531,8.12929 -14.68982,16.15359 -7.18827,11.66565 -6.78932,10.74431 -5.34398,12.3414 1.66206,1.83656 4.43744,2.5743 9.96089,2.64775 3.77478,0.0502 4.63343,-0.14266 4.97207,-1.11677 z m 36.33989,-4.25996 c 2.32838,-1.04467 5.32716,-2.10459 6.66395,-2.35537 2.29695,-0.43091 2.40812,-0.57135 2.02269,-2.5553 -0.68948,-3.54902 -4.31972,-10.24249 -6.96677,-12.8454 -2.8631,-2.81536 -7.04152,-5.43572 -9.71772,-6.09416 -1.00119,-0.24633 -2.53821,-1.40245 -3.4156,-2.56916 -2.38163,-3.16694 -9.22999,-15.94686 -9.22999,-17.22431 0,-2.01353 3.74063,-13.02225 7.04606,-20.73666 1.78646,-4.16937 3.02529,-7.80267 2.75293,-8.074 -0.80667,-0.80364 -10.58875,-0.34894 -13.45488,0.62542 -2.01891,0.68635 -2.78267,1.3785 -3.22016,2.91825 -0.31544,1.11018 -0.55523,8.16497 -0.53285,15.67732 0.0368,12.35419 -0.0909,13.95626 -1.33685,16.77293 l -1.37752,3.11412 2.27197,3.41207 c 1.24959,1.87664 5.41967,6.77592 9.26684,10.88729 3.84718,4.11137 7.79999,8.97829 8.78401,10.81537 2.10112,3.92262 4.01656,9.98212 3.37169,10.66634 -0.68633,0.72819 2.36034,-0.32068 7.0722,-2.43475 z m 189.95346,1.87829 c 0,-1.78685 -4.02171,-13.65098 -5.06575,-14.94404 -1.04368,-1.29262 -1.07173,-1.25889 -0.71475,0.85973 0.20436,1.21283 -0.0767,4.33607 -0.62456,6.94053 -1.39366,6.62528 -1.32859,7.19899 0.85418,7.52966 3.88461,0.58846 5.55088,0.47263 5.55088,-0.38588 z m -317.91386,-10.89774 6.05551,-3.37322 0.0584,-5.81932 c 0.0667,-6.63969 0.14958,-6.90067 6.38133,-20.08477 5.95558,-12.59981 6.06509,-13.07047 3.26781,-14.0456 -7.37634,-2.57141 -14.12771,1.60119 -15.15805,9.36823 -0.38778,2.92324 -0.84327,3.60041 -4.73333,7.03692 -7.03278,6.21281 -12.06439,14.70705 -12.35842,20.86315 -0.25244,5.28522 0.0438,6.76867 2.05015,10.26725 l 2.03521,3.54885 3.17294,-2.19413 c 1.74511,-1.20677 5.89791,-3.71208 9.22843,-5.56736 z m 306.94218,-1.35472 c -0.3766,-6.73282 -2.13323,-12.80657 -5.3241,-18.40866 -2.56508,-4.50343 -5.67428,-6.11356 -11.84678,-6.13499 -3.81778,-0.0132 -4.45988,0.18813 -6.22371,1.95197 -1.08171,1.08171 -1.96675,2.37753 -1.96675,2.8796 0,0.50208 2.4979,3.17355 5.55088,5.93661 8.03986,7.27638 14.86668,14.93169 17.07208,19.14395 1.75397,3.35005 1.97247,3.54053 2.49953,2.17898 0.31766,-0.82058 0.42514,-4.21693 0.23885,-7.54746 z m -9.2925,2.85954 c -0.43965,-0.83263 -4.82757,-5.44995 -9.75094,-10.26071 -13.6274,-13.3157 -16.25355,-18.27622 -15.4949,-29.26826 0.2171,-3.1455 0.58938,-6.55172 0.8273,-7.56938 0.38321,-1.63916 0.24129,-1.85029 -1.24384,-1.85029 -4.63102,0 -5.69505,0.66658 -7.50622,4.70241 -3.66803,8.17345 -2.92849,15.09505 3.13615,29.35255 l 3.47658,8.17316 4.80763,0.43566 c 6.45468,0.58491 12.97085,2.52572 18.00783,5.36356 2.2858,1.28782 4.24234,2.36257 4.34788,2.38833 0.10553,0.0258 -0.16783,-0.6344 -0.60747,-1.46703 z m -220.28438,-3.86879 c 5.65007,-6.63193 7.34962,-10.59905 7.35034,-17.15726 6.7e-4,-6.30412 -1.30887,-9.44772 -5.52095,-13.25308 -7.8038,-7.05026 -24.96944,-7.88501 -37.41006,-1.8192 -5.642,2.75093 -9.65822,6.71967 -12.71036,12.56009 -2.04298,3.90935 -4.84145,11.5977 -4.34534,11.93816 0.0913,0.0626 1.40162,-0.0158 2.91193,-0.17426 2.43647,-0.25567 2.84375,-0.55841 3.61299,-2.6857 1.09338,-3.02369 5.51589,-7.86049 9.07747,-9.92781 7.38272,-4.28533 19.43729,-4.8546 26.46526,-1.24982 4.22547,2.16731 4.7473,2.94631 3.08632,4.6073 -0.86833,0.86833 -1.89388,1.07852 -4.06704,0.83358 -1.63654,-0.18447 -2.90592,-0.0452 -2.90592,0.31877 0,0.35547 -0.90832,2.91474 -2.0185,5.68727 -1.11017,2.77253 -2.0185,5.28413 -2.0185,5.58134 0,0.29719 0.98402,0.93871 2.18671,1.42557 1.20269,0.48686 4.11442,2.50702 6.47052,4.48924 2.35609,1.98222 4.69452,3.51296 5.1965,3.40164 0.50199,-0.11133 2.58937,-2.17045 4.63863,-4.57583 z m 269.28129,3.621 c 1.72414,-0.46228 1.72083,-0.49678 -1.15948,-12.07942 -1.84705,-7.42759 -4.2185,-13.27535 -6.6526,-16.40464 -1.14005,-1.46566 -1.47975,-1.56097 -3.03614,-0.85184 -2.26259,1.03091 -5.34789,5.92626 -7.15218,11.34816 l -1.42505,4.28227 3.08161,4.31849 c 5.57672,7.81508 10.86931,10.85484 16.34384,9.38698 z m -197.52447,-3.11638 c 0.44532,-0.83263 3.87084,-4.69301 7.61227,-8.57862 6.72677,-6.98599 9.24388,-10.86043 10.13227,-15.59595 0.42529,-2.26694 0.3442,-2.40001 -1.71316,-2.81148 -3.88147,-0.7763 -7.57206,-0.4562 -10.35756,0.89835 -2.80314,1.36312 -3.8203,2.18777 -10.80956,8.76368 -2.22035,2.08904 -4.61757,4.11915 -5.32716,4.51135 -1.21011,0.66885 -1.14749,0.83838 1.00925,2.73243 1.26468,1.11063 3.51051,4.17293 4.99075,6.80511 1.48023,2.63217 2.90776,4.7865 3.17229,4.78739 0.26452,6.8e-4 0.8453,-0.67962 1.29061,-1.51226 z M 205.1402,394.38384 c 1.66535,-1.30298 0.79294,-1.65304 -1.51388,-0.60745 -1.2952,0.58706 -2.35492,1.27873 -2.35492,1.53704 0,0.59965 2.76271,-0.0642 3.8688,-0.92959 z m 37.34226,-4.18983 c 1.10747,-2.191 1.85029,-4.74987 1.85029,-6.37392 l 0,-2.71335 -3.95147,0 c -5.37511,0 -9.45321,1.90063 -12.67097,5.90542 -1.40433,1.74781 -2.81272,3.36706 -3.12977,3.59835 -1.03842,0.75752 0.9867,1.43075 6.88379,2.28849 9.32175,1.35584 8.91505,1.45569 11.01813,-2.70499 z M 496.4091,371.47949 c -2.69106,-15.33653 -9.15176,-22.66876 -19.97428,-22.66876 -2.51992,0 -6.11408,0.35372 -7.98702,0.78605 l -3.40534,0.78604 0.41793,2.61361 c 0.23343,1.45978 -0.10929,5.79106 -0.77632,9.81108 -1.05113,6.33493 -1.08227,7.58215 -0.25987,10.40741 l 0.93437,3.20994 2.61102,-1.86427 c 2.34589,-1.67498 3.16571,-1.86242 8.074,-1.84601 4.40974,0.0147 6.04094,0.32284 8.46073,1.59805 3.862,2.03526 10.40607,8.27866 11.57157,11.03991 0.87767,2.07932 0.91199,1.9826 1.10308,-3.10771 0.10847,-2.88961 -0.23798,-7.73401 -0.76987,-10.76534 z m -171.28797,11.96272 c 1.63867,-0.56578 3.67253,-1.56007 4.51969,-2.20953 1.50724,-1.15549 1.51652,-1.23771 0.43256,-3.83202 -0.85306,-2.04164 -1.00358,-3.70827 -0.65469,-7.24899 l 0.45306,-4.5978 -2.5677,0.44416 c -8.54741,1.47855 -14.97027,3.22254 -18.78564,5.10084 -2.39438,1.17875 -4.49157,2.3667 -4.6604,2.63988 -0.53699,0.86888 1.53311,4.99588 3.50254,6.98278 1.04535,1.05461 2.80896,2.3178 3.91914,2.80708 2.75214,1.21296 10.21299,1.16639 13.84144,-0.0864 z m -44.1555,-3.74028 c -0.43815,-0.70894 -3.66404,2.33566 -3.66404,3.45813 0,0.50816 0.85546,0.0702 1.99458,-1.02115 1.09702,-1.05101 1.84827,-2.14765 1.66946,-2.43698 z m 166.06299,2.35323 c 0.21848,-0.21849 -0.0338,-1.61904 -0.5607,-3.11235 -2.01327,-5.70621 -0.99709,-15.24381 2.49734,-23.43931 1.15301,-2.70418 1.65731,-3.15723 4.30162,-3.86447 1.64752,-0.44065 5.9061,-2.1888 9.46351,-3.88479 9.49647,-4.52743 14.78042,-4.90286 23.32831,-1.65749 5.14219,1.95234 7.37831,3.94891 10.5991,9.46366 5.26852,9.02095 9.76334,9.72395 12.99723,2.03278 0.88859,-2.11333 0.86031,-2.45961 -0.33263,-4.07315 -0.71708,-0.9699 -1.72946,-3.79797 -2.24973,-6.28459 -1.20781,-5.77271 -3.77133,-10.46271 -7.75619,-14.19008 -4.24934,-3.97477 -7.71367,-5.62283 -13.68703,-6.51125 -6.53539,-0.97203 -14.21078,0.47936 -20.94371,3.96036 -6.24274,3.22757 -15.58689,12.48605 -21.10652,20.91301 -3.45286,5.27156 -4.12474,6.7738 -4.12474,9.22236 0,2.75555 -0.31345,3.24186 -5.41001,8.39352 -3.82521,3.86656 -5.30118,5.81136 -5.0385,6.63896 0.59944,1.88868 4.03587,4.80476 6.84028,5.8045 2.59804,0.92618 10.43234,1.33835 11.18237,0.58833 z m 67.17801,-2.45736 c 1.72193,-4.15711 8.25462,-9.97456 14.23367,-12.67528 2.45405,-1.10849 3.28406,-4.27807 4.52167,-17.26708 1.425,-14.95577 -1.81797,-25.12863 -9.06278,-28.42903 -1.62691,-0.74114 -3.20172,-1.34782 -3.49957,-1.34817 -0.29784,-3.5e-4 -0.43934,5.02176 -0.31444,11.16026 0.31796,15.627 -1.25898,23.02032 -6.32741,29.66538 l -1.67333,2.19384 2.03653,1.81456 c 1.12009,0.99801 2.03789,2.29436 2.03955,2.8808 10e-4,0.58642 -1.09702,3.23686 -2.44152,5.88983 -1.77911,3.51057 -2.3259,5.29631 -2.0087,6.56013 0.58559,2.33317 1.40609,2.18683 2.49633,-0.44524 z m -131.03392,-5.89589 c 2.51372,-2.98739 5.71774,-9.91937 6.48488,-14.03021 0.79035,-4.23521 0.30463,-8.20777 -1.42577,-11.6609 -1.17207,-2.33896 -1.38959,-2.46038 -3.77418,-2.10679 -6.07302,0.90052 -10.72924,4.58814 -14.0381,11.11787 l -1.74908,3.45164 4.66569,4.44893 c 3.22171,3.07205 5.04111,5.43196 5.87874,7.62527 0.66718,1.74699 1.44778,3.17635 1.73467,3.17635 0.28689,0 1.2873,-0.90998 2.22315,-2.02216 z m 49.06292,-11.52526 c 2.01183,-3.97632 2.34613,-7.80713 1.05684,-12.1104 -0.88538,-2.95514 -1.40395,-3.11108 -4.35719,-1.31029 -2.91742,1.77896 -5.19825,4.98366 -7.30296,10.26109 l -1.78957,4.48723 2.90932,3.70626 2.90932,3.70625 2.36903,-2.5555 c 1.30297,-1.40553 3.19531,-4.18862 4.20521,-6.18464 z m -122.4441,-2.85835 c -0.47987,-4.06704 -1.51105,-7.81624 -2.14977,-7.81624 -0.30707,0 -0.74324,1.13541 -0.96927,2.52313 -0.22602,1.38772 -0.66698,3.74203 -0.97991,5.23182 -0.81041,3.85823 -0.50875,4.34573 2.17873,3.52093 2.15534,-0.6615 2.23372,-0.80271 1.92022,-3.45964 z m 13.56646,-4.45139 c -0.43815,-6.18007 -0.3609,-6.81068 1.24829,-10.19075 1.86935,-3.92651 3.92292,-6.26106 10.74634,-12.21666 3.29594,-2.87676 5.04383,-5.06405 6.64372,-8.3139 1.97431,-4.01039 2.19781,-5.10833 2.46598,-12.11429 0.49623,-12.96405 -2.52266,-25.70782 -8.39173,-35.42448 -1.89749,-3.14143 -2.92381,-3.94137 -2.92381,-2.2789 0,1.94719 -3.65752,6.48411 -5.56502,6.90307 -1.35366,0.29732 -1.81538,0.72568 -1.54412,1.43257 0.21284,0.55463 0.89228,3.5802 1.50988,6.72346 1.74978,8.9055 0.6952,15.70634 -5.12442,33.04676 -2.57118,7.66124 -5.03351,16.01649 -5.47182,18.56724 -1.36114,7.92094 0.25538,15.82821 4.04114,19.76741 2.40229,2.49966 2.87719,1.3149 2.36557,-5.90153 z m 8.99433,1.59858 c 3.90757,-3.41825 6.64659,-7.42817 12.21972,-17.88973 7.07305,-13.2771 13.34897,-17.54125 25.917,-17.60919 6.86554,-0.0371 6.75341,-0.0596 25.56767,5.12721 6.72921,1.85514 18.2573,2.28609 24.15269,0.90288 6.6214,-1.55354 11.99806,-4.65088 16.27215,-9.3739 2.00517,-2.21578 3.64576,-4.37597 3.64576,-4.80041 0,-0.42445 -1.61026,-1.27932 -3.57837,-1.8997 -1.9681,-0.6204 -4.94404,-1.81938 -6.61319,-2.66441 l -3.03483,-1.53642 -1.139,1.51001 c -1.594,2.11321 -6.61178,5.45379 -10.01744,6.66909 -3.75513,1.34001 -10.18426,1.3549 -14.71585,0.0341 -1.99444,-0.58133 -6.654,-2.88993 -10.35458,-5.13023 -7.76899,-4.70329 -11.73743,-6.08085 -17.44759,-6.05655 -5.68641,0.0242 -11.83704,2.29879 -19.04703,7.0439 l -6.06977,3.99469 -0.34853,3.84361 c -0.50308,5.5481 -2.99374,9.54077 -10.53142,16.88246 -7.78861,7.58611 -10.14324,11.60734 -10.12925,17.29871 0.01,3.95591 0.53216,6.76444 1.25831,6.76444 0.24074,0 2.03783,-1.39975 3.99355,-3.11057 z m 33.59825,-0.75822 c 3.24115,-5.26118 8.9392,-11.00738 12.61043,-12.71699 3.33389,-1.55253 8.10788,-2.00445 10.63656,-1.00689 1.60256,0.63221 5.7051,9.65669 6.26871,13.78949 l 0.4448,3.26157 3.77341,-0.46696 c 2.07537,-0.25683 3.86019,-0.54976 3.96627,-0.65096 0.34827,-0.33227 -2.60712,-7.33005 -5.12439,-12.13356 -2.99635,-5.71772 -9.94615,-12.95352 -14.43024,-15.02407 -3.71782,-1.71672 -9.59675,-2.61623 -13.94192,-2.13318 -2.73935,0.30453 -3.14418,0.58775 -4.27104,2.98809 -0.68467,1.45842 -1.99843,5.99692 -2.91945,10.08554 -1.82249,8.09037 -2.81199,10.87635 -4.90883,13.82108 l -1.36845,1.92182 1.85505,0.67737 c 3.95916,1.44568 5.30162,1.00858 7.40909,-2.41235 z m -18.59756,0.51381 3.10448,-0.009 2.12283,-7.22037 2.12283,-7.22038 -1.52672,-1.15396 c -2.95209,-2.2313 -3.81705,-2.01842 -5.49863,1.3533 -0.86122,1.72681 -2.66636,5.20539 -4.01143,7.73017 -2.90346,5.44997 -3.1841,7.53893 -0.93171,6.93532 0.83263,-0.22314 2.91089,-0.40984 4.61835,-0.4149 z m 94.59468,-9.23696 c 4.65157,-8.45508 12.30115,-16.01146 19.82261,-19.58111 7.67032,-3.64031 11.02963,-4.38026 20.35244,-4.483 l 8.01733,-0.0884 3.59377,-5.95744 c 5.83252,-9.6686 8.07652,-18.81056 6.24028,-25.42254 -0.73903,-2.66114 -1.54904,-2.99862 -4.24687,-1.76941 -1.13072,0.51519 -1.87696,1.63309 -2.35802,3.53238 -1.04074,4.10898 -4.26338,8.73817 -7.75603,11.14117 -3.90833,2.689 -9.86521,4.93 -20.92746,7.873 -13.28935,3.5355 -19.63674,6.81778 -23.18164,11.98737 -1.02865,1.5001 -3.13352,6.23975 -4.67748,10.53256 l -2.80722,7.8051 1.11265,3.29665 c 1.19067,3.52781 2.82717,6.99724 3.30054,6.99724 0.15908,0 1.74087,-2.63863 3.5151,-5.86361 z m -21.56118,0.59613 c 3.76166,-2.97586 7.19081,-6.7336 8.55593,-9.37574 1.17392,-2.27205 2.63962,-7.58298 2.21104,-8.01156 -0.17349,-0.17349 -1.59819,0.33897 -3.166,1.13881 -1.56781,0.79984 -5.45753,2.46738 -8.64383,3.70565 -4.45566,1.73157 -5.77045,2.53292 -5.69448,3.47073 0.36665,4.52599 2.00766,11.64825 2.68381,11.64825 0.43844,0 2.26252,-1.15926 4.05353,-2.57614 z m -62.65079,-14.58252 c 1.03016,-2.03609 1.69995,-3.87507 1.48841,-4.08661 -0.61344,-0.61344 -4.03419,1.42777 -6.18643,3.69153 -1.41882,1.49233 -1.67926,2.07857 -0.92343,2.07857 0.57901,0 1.42967,0.45416 1.89035,1.00925 1.30541,1.57293 1.7267,1.26888 3.7311,-2.69274 z m 86.81617,-27.54903 c 1.0222,-4.07281 -2.84483,-9.30826 -7.52362,-10.18601 -4.66489,-0.87514 -6.97854,1.72249 -6.03133,6.77159 0.4694,2.50212 1.52031,3.04198 8.45754,4.34474 4.56182,0.85667 4.65307,0.84002 5.09741,-0.93032 z M 327.6744,274.03648 c 0.78946,-1.89965 1.43538,-3.81636 1.43538,-4.25936 0,-0.44301 -1.41792,-1.84082 -3.15093,-3.10624 -4.5218,-3.30176 -4.80824,-3.43715 -6.28232,-2.9693 -1.71711,0.54499 -1.7125,2.65616 0.0136,6.22873 0.74012,1.53187 1.34567,3.42001 1.34567,4.19587 0,0.94798 0.71719,1.72237 2.18671,2.36108 1.20269,0.52274 2.37342,0.96228 2.60162,0.97677 0.22821,0.0145 1.06085,-1.52792 1.85029,-3.42755 z m 297.47164,49.99055 c -2.53515,-1.33496 -4.69662,-4.80281 -4.69829,-7.53796 -5.8e-4,-0.93924 0.6802,-3.05867 1.51283,-4.70983 3.01901,-5.98689 13.54637,-8.95262 17.55379,-4.9452 2.01166,2.01165 2.79272,5.1793 2.25874,9.16041 -0.48274,3.5991 -2.21391,5.88762 -5.86498,7.75323 -3.59167,1.83525 -7.6093,1.93954 -10.76209,0.27935 z m 10.34117,-5.12527 c 3.68552,-3.41563 1.52238,-8.44255 -3.63292,-8.44255 -5.05636,0 -7.97337,5.45272 -4.67925,8.74684 1.95557,1.95557 6.03487,1.80624 8.31217,-0.30429 z M 219.7829,290.19847 c -4.14405,-0.99231 -6.92752,-3.25586 -8.88636,-7.22646 -1.54534,-3.13243 -1.77042,-4.40333 -1.72791,-9.75609 0.0517,-6.5105 2.47129,-16.09045 4.60208,-18.22124 3.19223,-3.19224 17.71275,-4.73025 25.84455,-2.73745 8.14934,1.9971 15.00451,7.50687 17.89354,14.38176 1.58116,3.7626 1.28384,4.52849 -2.12894,5.48401 -3.64555,1.02069 -8.87014,4.31457 -15.57676,9.82048 -9.30749,7.64115 -14.18491,9.65227 -20.0202,8.25499 z m 4.68805,-7.99324 c 0.96606,-0.3673 4.64875,-3.42315 8.18376,-6.79077 6.64874,-6.33392 10.43912,-8.64923 14.20117,-8.67466 2.75826,-0.0186 2.78215,-1.00429 0.10312,-4.25442 -3.97571,-4.82322 -11.19302,-7.10559 -18.3598,-5.806 -5.36391,0.97266 -8.44328,2.63153 -11.65226,6.27712 -3.73214,4.23995 -4.99998,9.20689 -3.83585,15.02754 0.73629,3.68148 6.82681,5.94464 11.35986,4.22119 z M 553.49977,272.1719 c -2.4738,-0.62739 -4.61303,-1.73106 -11.02658,-5.68885 -2.78997,-1.72169 -6.20986,-3.25341 -7.79448,-3.49104 -1.55287,-0.23286 -3.21506,-0.66545 -3.69375,-0.96129 -1.05362,-0.65117 -0.33682,-2.03403 1.05433,-2.03403 0.78063,0 0.902,-0.52253 0.5532,-2.38178 -2.04176,-10.88352 13.01182,-19.92263 26.91243,-16.15991 4.199,1.13662 4.3489,1.25502 5.87353,4.63958 1.33028,2.95311 1.56557,4.58146 1.57128,10.87436 0.005,6.22038 -0.21845,7.83055 -1.40458,10.09251 -2.19727,4.19018 -7.23927,6.32934 -12.04538,5.11045 z m 7.19025,-8.16453 c 4.31813,-1.96747 2.48126,-10.74855 -3.43178,-16.40546 -1.83982,-1.76013 -2.4609,-1.95009 -5.93443,-1.81512 -5.14998,0.20012 -10.29431,2.55639 -12.10463,5.54432 -2.7133,4.47827 -2.65452,4.63592 3.1786,8.5251 2.93676,1.95805 6.48472,3.99772 7.88436,4.53259 2.78275,1.06344 7.62632,0.88594 10.40788,-0.38143 z m -111.29685,-2.3655 c -3.97408,-2.06893 -5.22886,-4.39966 -5.22886,-9.71257 0,-10.19385 7.78788,-14.63731 15.09609,-8.61326 3.127,2.57753 4.41609,5.46971 4.41609,9.90788 0,8.7698 -6.38231,12.53125 -14.28332,8.41795 z m 10.78914,-6.48276 c 0.27455,-3.3021 -1.30837,-6.17197 -4.14725,-7.51911 -5.82742,-2.76529 -9.32947,0.007 -7.95991,6.30119 0.61914,2.84543 3.3395,4.07109 8.53658,3.84617 3.36154,-0.14547 3.36433,-0.14753 3.57058,-2.62825 z M 316.16073,214.80738 c -1.66226,-0.90035 -2.95539,-2.31651 -3.79876,-4.16015 -1.41747,-3.09868 -3.78519,-5.66567 -12.37331,-13.41465 -7.52043,-6.78561 -10.22318,-11.75163 -9.77418,-17.95904 0.41959,-5.80076 2.82213,-9.05978 8.94062,-12.12788 4.38245,-2.19756 5.12426,-2.35491 11.10175,-2.35491 5.68506,0 6.84615,0.21637 10.32329,1.92374 9.4031,4.6172 11.75763,14.41972 6.78049,28.22903 -1.35848,3.76919 -3.56347,10.1079 -4.89997,14.08603 -1.3365,3.97813 -2.73371,7.21269 -3.1049,7.18791 -0.3712,-0.0248 -1.80896,-0.65932 -3.19503,-1.41008 z m 3.81386,-17.35796 c 3.98062,-12.65088 4.33685,-18.17473 1.45566,-22.57199 -2.31428,-3.53203 -7.49732,-5.04332 -12.59174,-3.67154 -7.59422,2.04491 -10.83454,8.45634 -8.59395,17.0043 0.59053,2.2529 1.36661,3.2276 3.85337,4.83957 1.71265,1.11017 5.21161,4.52992 7.77547,7.59943 2.56385,3.06952 4.88953,5.34033 5.16818,5.04626 0.27864,-0.29408 1.5985,-4.00479 2.93301,-8.24603 z"
         id="path3050"
         style="fill:#000000" />
    </g>
  </g>
  <path
     d="m 645.25923,225.26124 c -0.11818,-0.30797 0.15462,-0.90392 0.6093,-1.33106 1.57339,-1.47813 14.65105,-7.15544 17.30137,-7.51092 1.21847,-0.16343 1.43091,-0.0865 1.42872,0.51765 -0.003,0.92889 -1.57806,1.96497 -6.40853,4.21658 -7.93104,3.69686 -12.52814,5.15722 -12.93086,4.10775 z"
     id="path3854"
     style="fill:#ffffff;fill-opacity:1;stroke:#000000;stroke-width:0.37712362;stroke-opacity:1" />
  <path
     d="m 656.09894,238.93526 c -0.97581,-1.07825 -0.91038,-3.18131 0.13138,-4.22306 0.82223,-0.82223 0.84449,-0.82365 2.12238,-0.13546 1.57364,0.84746 2.35307,2.44574 1.74595,3.58017 -0.87361,1.63234 -2.87448,2.02171 -3.99971,0.77835 l 0,0 z"
     id="path3856"
     style="fill:#ffffff;fill-opacity:1;stroke:#000000;stroke-width:0.37712362;stroke-opacity:1" />
  <path
     d=""
     id="path3860"
     style="fill:#ffffff;fill-opacity:1;stroke:#000000;stroke-width:0.37712362;stroke-opacity:1" />
</svg>
